<?xml version="1.0" encoding="UTF-8"?>
<svg xmlns="http://www.w3.org/2000/svg" xmlns:xlink="http://www.w3.org/1999/xlink" width="288pt" height="144pt" viewBox="0 0 288 144">
<defs>
<g>
<g id="glyph-0-0">
<path d="M 1.171875 -5.96875 L 2.78125 -6.761719 L 2.941406 -6.761719 L 2.941406 -1.171875 C 2.941406 -0.789062 2.949219 -0.558594 2.988281 -0.46875 C 3.019531 -0.378906 3.078125 -0.308594 3.179688 -0.261719 C 3.28125 -0.210938 3.480469 -0.179688 3.78125 -0.179688 L 3.78125 0 L 1.289062 0 L 1.289062 -0.179688 C 1.601562 -0.179688 1.800781 -0.210938 1.890625 -0.261719 C 1.980469 -0.300781 2.039062 -0.371094 2.078125 -0.449219 C 2.121094 -0.53125 2.140625 -0.769531 2.140625 -1.171875 L 2.140625 -4.738281 C 2.140625 -5.21875 2.121094 -5.53125 2.089844 -5.671875 C 2.070312 -5.769531 2.03125 -5.851562 1.96875 -5.898438 C 1.910156 -5.941406 1.828125 -5.96875 1.75 -5.96875 C 1.628906 -5.96875 1.460938 -5.921875 1.25 -5.820312 Z M 1.171875 -5.96875 "/>
</g>
<g id="glyph-0-1">
<path d="M 0.359375 -3.269531 C 0.359375 -4.019531 0.46875 -4.671875 0.699219 -5.21875 C 0.921875 -5.761719 1.230469 -6.171875 1.609375 -6.441406 C 1.898438 -6.648438 2.199219 -6.761719 2.519531 -6.761719 C 3.019531 -6.761719 3.480469 -6.5 3.890625 -5.980469 C 4.390625 -5.339844 4.640625 -4.46875 4.640625 -3.371094 C 4.640625 -2.601562 4.53125 -1.949219 4.308594 -1.410156 C 4.089844 -0.871094 3.800781 -0.488281 3.460938 -0.25 C 3.121094 -0.0117188 2.789062 0.109375 2.46875 0.109375 C 1.828125 0.109375 1.308594 -0.261719 0.890625 -1 C 0.53125 -1.621094 0.359375 -2.378906 0.359375 -3.269531 Z M 1.320312 -3.148438 C 1.320312 -2.230469 1.429688 -1.488281 1.660156 -0.921875 C 1.839844 -0.429688 2.109375 -0.191406 2.488281 -0.191406 C 2.660156 -0.191406 2.839844 -0.261719 3.03125 -0.421875 C 3.21875 -0.578125 3.359375 -0.839844 3.460938 -1.21875 C 3.609375 -1.78125 3.691406 -2.570312 3.691406 -3.589844 C 3.691406 -4.339844 3.609375 -4.96875 3.449219 -5.480469 C 3.328125 -5.851562 3.179688 -6.109375 3 -6.269531 C 2.859375 -6.378906 2.699219 -6.441406 2.511719 -6.441406 C 2.289062 -6.441406 2.089844 -6.339844 1.921875 -6.140625 C 1.679688 -5.859375 1.519531 -5.441406 1.441406 -4.859375 C 1.359375 -4.28125 1.320312 -3.710938 1.320312 -3.148438 Z M 1.320312 -3.148438 "/>
</g>
<g id="glyph-0-2">
<path d="M 6.800781 -6.769531 L 1.96875 0.261719 L 1.539062 0.261719 L 6.359375 -6.769531 Z M 1.78125 -6.769531 C 2.21875 -6.769531 2.558594 -6.578125 2.800781 -6.21875 C 3.039062 -5.859375 3.160156 -5.441406 3.160156 -4.96875 C 3.160156 -4.398438 3.019531 -3.960938 2.75 -3.648438 C 2.46875 -3.339844 2.148438 -3.191406 1.769531 -3.191406 C 1.511719 -3.191406 1.269531 -3.261719 1.058594 -3.398438 C 0.839844 -3.539062 0.671875 -3.761719 0.539062 -4.039062 C 0.410156 -4.320312 0.351562 -4.628906 0.351562 -4.96875 C 0.351562 -5.308594 0.410156 -5.621094 0.539062 -5.910156 C 0.671875 -6.199219 0.851562 -6.421875 1.078125 -6.558594 C 1.300781 -6.699219 1.539062 -6.769531 1.78125 -6.769531 Z M 1.761719 -6.5 C 1.589844 -6.5 1.441406 -6.398438 1.320312 -6.199219 C 1.191406 -6 1.128906 -5.601562 1.128906 -4.980469 C 1.128906 -4.519531 1.160156 -4.179688 1.238281 -3.941406 C 1.289062 -3.761719 1.371094 -3.621094 1.488281 -3.53125 C 1.558594 -3.46875 1.648438 -3.441406 1.75 -3.441406 C 1.898438 -3.441406 2.03125 -3.519531 2.148438 -3.691406 C 2.308594 -3.941406 2.390625 -4.359375 2.390625 -4.949219 C 2.390625 -5.558594 2.308594 -5.988281 2.148438 -6.25 C 2.050781 -6.410156 1.921875 -6.5 1.761719 -6.5 Z M 6.570312 -3.289062 C 6.800781 -3.289062 7.03125 -3.210938 7.261719 -3.070312 C 7.488281 -2.921875 7.671875 -2.710938 7.789062 -2.429688 C 7.910156 -2.148438 7.980469 -1.839844 7.980469 -1.5 C 7.980469 -0.921875 7.839844 -0.488281 7.558594 -0.191406 C 7.28125 0.109375 6.960938 0.261719 6.589844 0.261719 C 6.351562 0.261719 6.109375 0.179688 5.890625 0.0390625 C 5.671875 -0.101562 5.488281 -0.300781 5.371094 -0.570312 C 5.238281 -0.839844 5.179688 -1.148438 5.179688 -1.5 C 5.179688 -1.839844 5.238281 -2.160156 5.371094 -2.441406 C 5.488281 -2.71875 5.671875 -2.941406 5.890625 -3.078125 C 6.109375 -3.21875 6.339844 -3.289062 6.570312 -3.289062 Z M 6.578125 -3.03125 C 6.421875 -3.03125 6.28125 -2.941406 6.171875 -2.761719 C 6.019531 -2.53125 5.949219 -2.101562 5.949219 -1.46875 C 5.949219 -0.890625 6.019531 -0.480469 6.179688 -0.25 C 6.28125 -0.078125 6.421875 0 6.578125 0 C 6.71875 0 6.859375 -0.0898438 6.980469 -0.269531 C 7.128906 -0.511719 7.210938 -0.910156 7.210938 -1.488281 C 7.210938 -2.101562 7.128906 -2.53125 6.980469 -2.78125 C 6.871094 -2.941406 6.738281 -3.03125 6.578125 -3.03125 Z M 6.578125 -3.03125 "/>
</g>
<g id="glyph-0-3">
<path d="M 4.339844 -6.621094 L 3.960938 -5.789062 L 1.96875 -5.789062 L 1.53125 -4.898438 C 2.390625 -4.769531 3.078125 -4.449219 3.578125 -3.941406 C 4.011719 -3.5 4.230469 -2.980469 4.230469 -2.378906 C 4.230469 -2.03125 4.160156 -1.710938 4.019531 -1.410156 C 3.878906 -1.109375 3.699219 -0.859375 3.480469 -0.648438 C 3.261719 -0.441406 3.03125 -0.269531 2.769531 -0.148438 C 2.390625 0.0195312 2.011719 0.109375 1.621094 0.109375 C 1.21875 0.109375 0.929688 0.0390625 0.75 -0.0898438 C 0.570312 -0.21875 0.480469 -0.371094 0.480469 -0.53125 C 0.480469 -0.621094 0.511719 -0.699219 0.589844 -0.769531 C 0.660156 -0.839844 0.75 -0.878906 0.871094 -0.878906 C 0.949219 -0.878906 1.03125 -0.859375 1.089844 -0.839844 C 1.148438 -0.808594 1.261719 -0.738281 1.421875 -0.640625 C 1.660156 -0.46875 1.910156 -0.390625 2.160156 -0.390625 C 2.539062 -0.390625 2.871094 -0.53125 3.160156 -0.820312 C 3.449219 -1.101562 3.601562 -1.449219 3.601562 -1.871094 C 3.601562 -2.269531 3.46875 -2.640625 3.210938 -2.988281 C 2.949219 -3.328125 2.601562 -3.601562 2.148438 -3.789062 C 1.789062 -3.929688 1.308594 -4.019531 0.699219 -4.050781 L 1.96875 -6.621094 Z M 4.339844 -6.621094 "/>
</g>
<g id="glyph-0-4">
<path d="M 4.578125 -1.269531 L 4.121094 0 L 0.210938 0 L 0.210938 -0.179688 C 1.359375 -1.21875 2.171875 -2.078125 2.640625 -2.75 C 3.101562 -3.410156 3.339844 -4.019531 3.339844 -4.570312 C 3.339844 -4.988281 3.210938 -5.328125 2.949219 -5.601562 C 2.691406 -5.871094 2.390625 -6.011719 2.039062 -6.011719 C 1.710938 -6.011719 1.421875 -5.910156 1.160156 -5.71875 C 0.898438 -5.53125 0.710938 -5.25 0.589844 -4.890625 L 0.410156 -4.890625 C 0.488281 -5.488281 0.691406 -5.949219 1.03125 -6.269531 C 1.371094 -6.589844 1.789062 -6.761719 2.289062 -6.761719 C 2.828125 -6.761719 3.28125 -6.578125 3.640625 -6.238281 C 4 -5.890625 4.179688 -5.480469 4.179688 -5.019531 C 4.179688 -4.679688 4.101562 -4.351562 3.949219 -4.011719 C 3.699219 -3.480469 3.308594 -2.921875 2.769531 -2.339844 C 1.960938 -1.449219 1.449219 -0.921875 1.25 -0.738281 L 2.980469 -0.738281 C 3.328125 -0.738281 3.578125 -0.75 3.71875 -0.78125 C 3.859375 -0.800781 3.988281 -0.851562 4.109375 -0.929688 C 4.21875 -1.011719 4.320312 -1.121094 4.398438 -1.269531 Z M 4.578125 -1.269531 "/>
</g>
<g id="glyph-0-5">
<path d="M 0.511719 -5.359375 C 0.691406 -5.800781 0.929688 -6.148438 1.21875 -6.390625 C 1.511719 -6.628906 1.871094 -6.761719 2.300781 -6.761719 C 2.828125 -6.761719 3.238281 -6.578125 3.519531 -6.238281 C 3.730469 -5.980469 3.839844 -5.699219 3.839844 -5.421875 C 3.839844 -4.929688 3.53125 -4.429688 2.929688 -3.921875 C 3.328125 -3.761719 3.640625 -3.53125 3.851562 -3.230469 C 4.058594 -2.929688 4.171875 -2.589844 4.171875 -2.191406 C 4.171875 -1.609375 3.980469 -1.121094 3.621094 -0.699219 C 3.140625 -0.160156 2.460938 0.109375 1.558594 0.109375 C 1.109375 0.109375 0.808594 0.0507812 0.648438 -0.0507812 C 0.488281 -0.148438 0.410156 -0.269531 0.410156 -0.410156 C 0.410156 -0.5 0.441406 -0.578125 0.519531 -0.648438 C 0.589844 -0.71875 0.679688 -0.761719 0.800781 -0.761719 C 0.878906 -0.761719 0.960938 -0.738281 1.039062 -0.71875 C 1.101562 -0.699219 1.21875 -0.640625 1.421875 -0.539062 C 1.609375 -0.441406 1.75 -0.378906 1.828125 -0.359375 C 1.949219 -0.320312 2.070312 -0.308594 2.210938 -0.308594 C 2.539062 -0.308594 2.828125 -0.429688 3.078125 -0.691406 C 3.320312 -0.949219 3.449219 -1.25 3.449219 -1.609375 C 3.449219 -1.859375 3.390625 -2.109375 3.28125 -2.359375 C 3.191406 -2.539062 3.101562 -2.671875 3 -2.769531 C 2.859375 -2.898438 2.660156 -3.019531 2.421875 -3.128906 C 2.179688 -3.230469 1.929688 -3.289062 1.671875 -3.289062 L 1.519531 -3.289062 L 1.519531 -3.429688 C 1.769531 -3.460938 2.03125 -3.550781 2.289062 -3.710938 C 2.550781 -3.859375 2.730469 -4.039062 2.851562 -4.261719 C 2.96875 -4.46875 3.03125 -4.710938 3.03125 -4.96875 C 3.03125 -5.300781 2.921875 -5.570312 2.710938 -5.78125 C 2.5 -5.980469 2.238281 -6.089844 1.929688 -6.089844 C 1.429688 -6.089844 1.011719 -5.820312 0.671875 -5.28125 Z M 0.511719 -5.359375 "/>
</g>
<g id="glyph-0-6">
<path d="M 2.800781 -6.941406 L 0.410156 0.128906 L 0.0117188 0.128906 L 2.410156 -6.941406 Z M 2.800781 -6.941406 "/>
</g>
<g id="glyph-0-7">
<path d="M 4.578125 -6.769531 L 4.578125 -4.480469 L 4.398438 -4.480469 C 4.339844 -4.921875 4.238281 -5.269531 4.089844 -5.53125 C 3.929688 -5.789062 3.71875 -5.988281 3.441406 -6.148438 C 3.160156 -6.300781 2.871094 -6.378906 2.570312 -6.378906 C 2.230469 -6.378906 1.949219 -6.269531 1.730469 -6.070312 C 1.511719 -5.859375 1.398438 -5.628906 1.398438 -5.371094 C 1.398438 -5.160156 1.46875 -4.96875 1.609375 -4.808594 C 1.808594 -4.570312 2.289062 -4.238281 3.050781 -3.839844 C 3.671875 -3.5 4.089844 -3.25 4.320312 -3.070312 C 4.539062 -2.890625 4.71875 -2.679688 4.839844 -2.441406 C 4.960938 -2.199219 5.019531 -1.949219 5.019531 -1.691406 C 5.019531 -1.191406 4.820312 -0.761719 4.441406 -0.398438 C 4.050781 -0.0390625 3.550781 0.140625 2.941406 0.140625 C 2.738281 0.140625 2.558594 0.121094 2.398438 0.101562 C 2.300781 0.078125 2.089844 0.0195312 1.769531 -0.0703125 C 1.449219 -0.171875 1.238281 -0.21875 1.160156 -0.21875 C 1.078125 -0.21875 1.011719 -0.191406 0.96875 -0.148438 C 0.921875 -0.101562 0.890625 0 0.871094 0.140625 L 0.691406 0.140625 L 0.691406 -2.121094 L 0.871094 -2.121094 C 0.949219 -1.640625 1.070312 -1.289062 1.210938 -1.050781 C 1.351562 -0.808594 1.570312 -0.621094 1.871094 -0.460938 C 2.160156 -0.300781 2.480469 -0.230469 2.839844 -0.230469 C 3.238281 -0.230469 3.558594 -0.328125 3.800781 -0.550781 C 4.039062 -0.761719 4.160156 -1.011719 4.160156 -1.308594 C 4.160156 -1.46875 4.109375 -1.640625 4.019531 -1.808594 C 3.929688 -1.96875 3.789062 -2.128906 3.601562 -2.269531 C 3.46875 -2.371094 3.121094 -2.570312 2.558594 -2.890625 C 1.988281 -3.210938 1.589844 -3.460938 1.351562 -3.648438 C 1.109375 -3.839844 0.929688 -4.050781 0.808594 -4.28125 C 0.691406 -4.5 0.628906 -4.75 0.628906 -5.03125 C 0.628906 -5.5 0.808594 -5.910156 1.171875 -6.25 C 1.53125 -6.589844 2 -6.769531 2.558594 -6.769531 C 2.910156 -6.769531 3.28125 -6.679688 3.679688 -6.511719 C 3.859375 -6.429688 3.988281 -6.390625 4.070312 -6.390625 C 4.148438 -6.390625 4.210938 -6.410156 4.269531 -6.460938 C 4.328125 -6.511719 4.371094 -6.609375 4.398438 -6.769531 Z M 4.578125 -6.769531 "/>
</g>
<g id="glyph-0-8">
<path d="M 1.449219 -6.941406 C 1.589844 -6.941406 1.699219 -6.890625 1.800781 -6.800781 C 1.890625 -6.699219 1.941406 -6.589844 1.941406 -6.449219 C 1.941406 -6.308594 1.890625 -6.199219 1.800781 -6.101562 C 1.699219 -6 1.589844 -5.949219 1.449219 -5.949219 C 1.308594 -5.949219 1.199219 -6 1.101562 -6.101562 C 1 -6.199219 0.949219 -6.308594 0.949219 -6.449219 C 0.949219 -6.589844 0.988281 -6.699219 1.089844 -6.800781 C 1.191406 -6.890625 1.308594 -6.941406 1.449219 -6.941406 Z M 1.859375 -4.601562 L 1.859375 -1.011719 C 1.859375 -0.730469 1.878906 -0.539062 1.921875 -0.449219 C 1.960938 -0.351562 2.019531 -0.28125 2.101562 -0.238281 C 2.179688 -0.199219 2.320312 -0.179688 2.53125 -0.179688 L 2.53125 0 L 0.359375 0 L 0.359375 -0.179688 C 0.578125 -0.179688 0.71875 -0.199219 0.800781 -0.238281 C 0.871094 -0.28125 0.929688 -0.351562 0.96875 -0.449219 C 1.011719 -0.550781 1.039062 -0.730469 1.039062 -1.011719 L 1.039062 -2.730469 C 1.039062 -3.210938 1.019531 -3.53125 1 -3.679688 C 0.980469 -3.78125 0.941406 -3.851562 0.890625 -3.890625 C 0.839844 -3.929688 0.769531 -3.960938 0.691406 -3.960938 C 0.601562 -3.960938 0.488281 -3.929688 0.359375 -3.878906 L 0.289062 -4.058594 L 1.640625 -4.601562 Z M 1.859375 -4.601562 "/>
</g>
<g id="glyph-0-9">
<path d="M 1.621094 -3.660156 C 2.140625 -4.28125 2.640625 -4.601562 3.121094 -4.601562 C 3.359375 -4.601562 3.558594 -4.539062 3.738281 -4.421875 C 3.921875 -4.300781 4.058594 -4.101562 4.171875 -3.820312 C 4.230469 -3.621094 4.269531 -3.320312 4.269531 -2.921875 L 4.269531 -1.011719 C 4.269531 -0.730469 4.289062 -0.53125 4.339844 -0.429688 C 4.371094 -0.351562 4.429688 -0.28125 4.511719 -0.238281 C 4.589844 -0.199219 4.738281 -0.179688 4.960938 -0.179688 L 4.960938 0 L 2.738281 0 L 2.738281 -0.179688 L 2.839844 -0.179688 C 3.039062 -0.179688 3.191406 -0.210938 3.269531 -0.269531 C 3.351562 -0.328125 3.410156 -0.429688 3.449219 -0.550781 C 3.460938 -0.601562 3.46875 -0.75 3.46875 -1.011719 L 3.46875 -2.839844 C 3.46875 -3.238281 3.410156 -3.539062 3.308594 -3.71875 C 3.199219 -3.898438 3.019531 -4 2.769531 -4 C 2.378906 -4 2 -3.789062 1.621094 -3.371094 L 1.621094 -1.011719 C 1.621094 -0.710938 1.628906 -0.519531 1.671875 -0.449219 C 1.710938 -0.351562 1.78125 -0.28125 1.859375 -0.238281 C 1.941406 -0.199219 2.101562 -0.179688 2.339844 -0.179688 L 2.339844 0 L 0.128906 0 L 0.128906 -0.179688 L 0.230469 -0.179688 C 0.449219 -0.179688 0.609375 -0.230469 0.691406 -0.351562 C 0.769531 -0.460938 0.808594 -0.679688 0.808594 -1.011719 L 0.808594 -2.671875 C 0.808594 -3.210938 0.789062 -3.53125 0.769531 -3.648438 C 0.75 -3.769531 0.710938 -3.851562 0.660156 -3.890625 C 0.609375 -3.929688 0.539062 -3.960938 0.460938 -3.960938 C 0.359375 -3.960938 0.25 -3.929688 0.128906 -3.878906 L 0.0585938 -4.058594 L 1.410156 -4.601562 L 1.621094 -4.601562 Z M 1.621094 -3.660156 "/>
</g>
<g id="glyph-0-10">
<path d="M 1.511719 -1.628906 C 1.230469 -1.761719 1.019531 -1.949219 0.878906 -2.191406 C 0.730469 -2.429688 0.660156 -2.691406 0.660156 -2.980469 C 0.660156 -3.421875 0.820312 -3.800781 1.160156 -4.121094 C 1.488281 -4.441406 1.921875 -4.601562 2.441406 -4.601562 C 2.859375 -4.601562 3.230469 -4.488281 3.550781 -4.289062 L 4.5 -4.289062 C 4.640625 -4.289062 4.71875 -4.28125 4.738281 -4.28125 C 4.761719 -4.269531 4.78125 -4.261719 4.789062 -4.238281 C 4.808594 -4.199219 4.820312 -4.148438 4.820312 -4.078125 C 4.820312 -4 4.808594 -3.941406 4.789062 -3.910156 C 4.78125 -3.890625 4.761719 -3.871094 4.738281 -3.859375 C 4.71875 -3.851562 4.640625 -3.851562 4.5 -3.851562 L 3.921875 -3.851562 C 4.101562 -3.609375 4.191406 -3.308594 4.191406 -2.949219 C 4.191406 -2.53125 4.03125 -2.179688 3.710938 -1.878906 C 3.390625 -1.578125 2.960938 -1.441406 2.429688 -1.441406 C 2.199219 -1.441406 1.96875 -1.46875 1.75 -1.539062 C 1.601562 -1.410156 1.5 -1.300781 1.449219 -1.210938 C 1.398438 -1.109375 1.378906 -1.039062 1.378906 -0.980469 C 1.378906 -0.921875 1.398438 -0.859375 1.460938 -0.808594 C 1.511719 -0.761719 1.621094 -0.71875 1.78125 -0.699219 C 1.859375 -0.679688 2.089844 -0.671875 2.460938 -0.671875 C 3.128906 -0.648438 3.558594 -0.621094 3.761719 -0.601562 C 4.058594 -0.558594 4.308594 -0.449219 4.488281 -0.269531 C 4.671875 -0.0898438 4.761719 0.128906 4.761719 0.398438 C 4.761719 0.761719 4.578125 1.109375 4.238281 1.441406 C 3.730469 1.910156 3.070312 2.148438 2.261719 2.148438 C 1.621094 2.148438 1.089844 2 0.660156 1.71875 C 0.421875 1.558594 0.300781 1.390625 0.300781 1.21875 C 0.300781 1.140625 0.308594 1.058594 0.351562 0.980469 C 0.398438 0.859375 0.511719 0.691406 0.691406 0.480469 C 0.710938 0.441406 0.878906 0.269531 1.191406 -0.0390625 C 1.019531 -0.140625 0.898438 -0.230469 0.828125 -0.308594 C 0.761719 -0.390625 0.730469 -0.480469 0.730469 -0.578125 C 0.730469 -0.691406 0.769531 -0.820312 0.871094 -0.980469 C 0.960938 -1.128906 1.171875 -1.351562 1.511719 -1.628906 Z M 2.359375 -4.371094 C 2.121094 -4.371094 1.910156 -4.269531 1.75 -4.078125 C 1.589844 -3.878906 1.511719 -3.589844 1.511719 -3.199219 C 1.511719 -2.679688 1.621094 -2.28125 1.839844 -2 C 2 -1.78125 2.21875 -1.679688 2.488281 -1.679688 C 2.730469 -1.679688 2.929688 -1.769531 3.089844 -1.960938 C 3.25 -2.140625 3.328125 -2.429688 3.328125 -2.828125 C 3.328125 -3.351562 3.21875 -3.75 3 -4.050781 C 2.828125 -4.261719 2.621094 -4.371094 2.359375 -4.371094 Z M 1.460938 0 C 1.300781 0.160156 1.191406 0.308594 1.109375 0.449219 C 1.03125 0.589844 1 0.730469 1 0.851562 C 1 1 1.089844 1.140625 1.28125 1.261719 C 1.601562 1.460938 2.070312 1.558594 2.691406 1.558594 C 3.269531 1.558594 3.699219 1.449219 3.980469 1.25 C 4.261719 1.039062 4.398438 0.820312 4.398438 0.589844 C 4.398438 0.421875 4.320312 0.300781 4.160156 0.230469 C 3.980469 0.148438 3.648438 0.109375 3.148438 0.101562 C 2.410156 0.078125 1.851562 0.0390625 1.460938 0 Z M 1.460938 0 "/>
</g>
<g id="glyph-0-11">
<path d="M 1.851562 -6.941406 L 1.851562 -1.011719 C 1.851562 -0.730469 1.871094 -0.539062 1.910156 -0.449219 C 1.949219 -0.359375 2.011719 -0.289062 2.101562 -0.25 C 2.179688 -0.199219 2.339844 -0.179688 2.570312 -0.179688 L 2.570312 0 L 0.378906 0 L 0.378906 -0.179688 C 0.578125 -0.179688 0.71875 -0.199219 0.800781 -0.238281 C 0.871094 -0.28125 0.929688 -0.351562 0.96875 -0.449219 C 1.011719 -0.550781 1.039062 -0.730469 1.039062 -1.011719 L 1.039062 -5.070312 C 1.039062 -5.570312 1.019531 -5.878906 1 -6 C 0.980469 -6.121094 0.941406 -6.199219 0.890625 -6.238281 C 0.839844 -6.28125 0.78125 -6.300781 0.699219 -6.300781 C 0.621094 -6.300781 0.511719 -6.269531 0.378906 -6.230469 L 0.300781 -6.398438 L 1.628906 -6.941406 Z M 1.851562 -6.941406 "/>
</g>
<g id="glyph-0-12">
<path d="M 1.058594 -2.789062 C 1.058594 -2.121094 1.21875 -1.601562 1.550781 -1.21875 C 1.871094 -0.839844 2.261719 -0.660156 2.699219 -0.660156 C 2.980469 -0.660156 3.230469 -0.738281 3.449219 -0.898438 C 3.671875 -1.058594 3.851562 -1.328125 4 -1.730469 L 4.160156 -1.628906 C 4.078125 -1.179688 3.878906 -0.769531 3.558594 -0.410156 C 3.230469 -0.0507812 2.820312 0.128906 2.320312 0.128906 C 1.78125 0.128906 1.320312 -0.0703125 0.941406 -0.488281 C 0.558594 -0.910156 0.371094 -1.46875 0.371094 -2.179688 C 0.371094 -2.941406 0.558594 -3.539062 0.960938 -3.96875 C 1.351562 -4.390625 1.839844 -4.609375 2.441406 -4.609375 C 2.941406 -4.609375 3.351562 -4.441406 3.671875 -4.109375 C 3.988281 -3.78125 4.160156 -3.339844 4.160156 -2.789062 Z M 1.058594 -3.070312 L 3.128906 -3.070312 C 3.109375 -3.351562 3.078125 -3.558594 3.03125 -3.679688 C 2.949219 -3.859375 2.828125 -4 2.671875 -4.101562 C 2.511719 -4.199219 2.339844 -4.261719 2.160156 -4.261719 C 1.890625 -4.261719 1.648438 -4.148438 1.441406 -3.941406 C 1.21875 -3.730469 1.101562 -3.441406 1.058594 -3.070312 Z M 1.058594 -3.070312 "/>
</g>
<g id="glyph-0-13">
<path d="M 0.410156 -2.609375 L 2.929688 -2.609375 L 2.929688 -1.878906 L 0.410156 -1.878906 Z M 0.410156 -2.609375 "/>
</g>
<g id="glyph-0-14">
<path d="M 2.058594 -4.121094 L 2.058594 -1.179688 C 2.058594 -0.761719 2.101562 -0.5 2.199219 -0.390625 C 2.320312 -0.25 2.480469 -0.179688 2.679688 -0.179688 L 3.089844 -0.179688 L 3.089844 0 L 0.421875 0 L 0.421875 -0.179688 L 0.621094 -0.179688 C 0.738281 -0.179688 0.859375 -0.210938 0.96875 -0.269531 C 1.070312 -0.328125 1.148438 -0.421875 1.191406 -0.53125 C 1.230469 -0.640625 1.25 -0.859375 1.25 -1.179688 L 1.25 -4.121094 L 0.390625 -4.121094 L 0.390625 -4.46875 L 1.25 -4.46875 L 1.25 -4.769531 C 1.25 -5.210938 1.320312 -5.578125 1.460938 -5.890625 C 1.601562 -6.199219 1.820312 -6.449219 2.121094 -6.640625 C 2.421875 -6.828125 2.75 -6.929688 3.121094 -6.929688 C 3.460938 -6.929688 3.769531 -6.820312 4.058594 -6.601562 C 4.25 -6.449219 4.351562 -6.289062 4.351562 -6.109375 C 4.351562 -6.011719 4.300781 -5.910156 4.21875 -5.828125 C 4.128906 -5.738281 4.039062 -5.699219 3.949219 -5.699219 C 3.871094 -5.699219 3.78125 -5.71875 3.699219 -5.78125 C 3.621094 -5.828125 3.519531 -5.949219 3.398438 -6.128906 C 3.28125 -6.308594 3.171875 -6.429688 3.070312 -6.488281 C 2.96875 -6.550781 2.851562 -6.578125 2.730469 -6.578125 C 2.578125 -6.578125 2.449219 -6.539062 2.351562 -6.460938 C 2.25 -6.378906 2.171875 -6.25 2.128906 -6.089844 C 2.078125 -5.921875 2.058594 -5.488281 2.058594 -4.789062 L 2.058594 -4.46875 L 3.210938 -4.46875 L 3.210938 -4.121094 Z M 2.058594 -4.121094 "/>
</g>
<g id="glyph-0-15">
<path d="M 2.5 -4.601562 C 3.179688 -4.601562 3.71875 -4.339844 4.128906 -3.828125 C 4.46875 -3.390625 4.648438 -2.878906 4.648438 -2.320312 C 4.648438 -1.921875 4.550781 -1.511719 4.359375 -1.101562 C 4.171875 -0.691406 3.910156 -0.378906 3.570312 -0.179688 C 3.230469 0.0195312 2.859375 0.128906 2.449219 0.128906 C 1.769531 0.128906 1.238281 -0.128906 0.839844 -0.671875 C 0.5 -1.121094 0.339844 -1.628906 0.339844 -2.191406 C 0.339844 -2.601562 0.441406 -3.011719 0.640625 -3.410156 C 0.839844 -3.808594 1.109375 -4.109375 1.441406 -4.308594 C 1.769531 -4.5 2.121094 -4.601562 2.5 -4.601562 Z M 2.351562 -4.289062 C 2.171875 -4.289062 2 -4.230469 1.828125 -4.128906 C 1.648438 -4.03125 1.511719 -3.851562 1.410156 -3.589844 C 1.300781 -3.328125 1.25 -3 1.25 -2.601562 C 1.25 -1.949219 1.371094 -1.390625 1.628906 -0.921875 C 1.890625 -0.441406 2.230469 -0.210938 2.660156 -0.210938 C 2.96875 -0.210938 3.230469 -0.339844 3.441406 -0.601562 C 3.640625 -0.859375 3.75 -1.300781 3.75 -1.941406 C 3.75 -2.730469 3.570312 -3.359375 3.230469 -3.820312 C 3 -4.128906 2.710938 -4.289062 2.351562 -4.289062 Z M 2.351562 -4.289062 "/>
</g>
<g id="glyph-0-16">
<path d="M 0.078125 -4.46875 L 2.191406 -4.46875 L 2.191406 -4.289062 L 2.050781 -4.289062 C 1.921875 -4.289062 1.820312 -4.261719 1.761719 -4.199219 C 1.691406 -4.140625 1.660156 -4.050781 1.660156 -3.949219 C 1.660156 -3.828125 1.691406 -3.699219 1.761719 -3.539062 L 2.800781 -1.070312 L 3.851562 -3.640625 C 3.921875 -3.820312 3.960938 -3.949219 3.960938 -4.050781 C 3.960938 -4.089844 3.941406 -4.128906 3.921875 -4.171875 C 3.878906 -4.210938 3.839844 -4.238281 3.78125 -4.261719 C 3.71875 -4.28125 3.609375 -4.289062 3.449219 -4.289062 L 3.449219 -4.46875 L 4.910156 -4.46875 L 4.910156 -4.289062 C 4.730469 -4.269531 4.621094 -4.238281 4.558594 -4.191406 C 4.441406 -4.089844 4.328125 -3.921875 4.25 -3.699219 L 2.660156 0.128906 L 2.460938 0.128906 L 0.859375 -3.640625 C 0.789062 -3.808594 0.71875 -3.929688 0.660156 -4.011719 C 0.589844 -4.089844 0.511719 -4.148438 0.410156 -4.210938 C 0.351562 -4.230469 0.238281 -4.261719 0.078125 -4.289062 Z M 0.078125 -4.46875 "/>
</g>
<g id="glyph-0-17">
<path d="M 2.851562 -0.640625 C 2.390625 -0.28125 2.101562 -0.078125 1.980469 -0.03125 C 1.800781 0.0390625 1.621094 0.078125 1.421875 0.078125 C 1.109375 0.078125 0.859375 -0.0195312 0.660156 -0.230469 C 0.460938 -0.429688 0.359375 -0.710938 0.359375 -1.058594 C 0.359375 -1.28125 0.398438 -1.46875 0.5 -1.628906 C 0.628906 -1.851562 0.859375 -2.050781 1.191406 -2.25 C 1.519531 -2.441406 2.070312 -2.679688 2.851562 -2.960938 L 2.851562 -3.140625 C 2.851562 -3.578125 2.769531 -3.890625 2.628906 -4.058594 C 2.488281 -4.21875 2.28125 -4.308594 2.019531 -4.308594 C 1.808594 -4.308594 1.648438 -4.25 1.53125 -4.140625 C 1.398438 -4.019531 1.339844 -3.898438 1.339844 -3.761719 L 1.351562 -3.480469 C 1.351562 -3.320312 1.308594 -3.210938 1.230469 -3.128906 C 1.148438 -3.050781 1.058594 -3.011719 0.941406 -3.011719 C 0.820312 -3.011719 0.71875 -3.050781 0.640625 -3.128906 C 0.558594 -3.210938 0.53125 -3.328125 0.53125 -3.480469 C 0.53125 -3.761719 0.671875 -4.011719 0.960938 -4.25 C 1.238281 -4.480469 1.640625 -4.601562 2.160156 -4.601562 C 2.558594 -4.601562 2.878906 -4.53125 3.140625 -4.398438 C 3.328125 -4.300781 3.46875 -4.140625 3.558594 -3.929688 C 3.621094 -3.789062 3.648438 -3.5 3.648438 -3.070312 L 3.648438 -1.550781 C 3.648438 -1.121094 3.648438 -0.859375 3.671875 -0.769531 C 3.691406 -0.671875 3.710938 -0.609375 3.75 -0.578125 C 3.789062 -0.539062 3.828125 -0.53125 3.878906 -0.53125 C 3.929688 -0.53125 3.980469 -0.539062 4.019531 -0.558594 C 4.089844 -0.601562 4.21875 -0.71875 4.421875 -0.921875 L 4.421875 -0.640625 C 4.050781 -0.160156 3.699219 0.078125 3.371094 0.078125 C 3.210938 0.078125 3.078125 0.0195312 2.988281 -0.078125 C 2.890625 -0.179688 2.851562 -0.371094 2.851562 -0.640625 Z M 2.851562 -0.960938 L 2.851562 -2.671875 C 2.351562 -2.46875 2.03125 -2.328125 1.890625 -2.25 C 1.628906 -2.109375 1.449219 -1.960938 1.339844 -1.800781 C 1.230469 -1.640625 1.179688 -1.46875 1.179688 -1.289062 C 1.179688 -1.050781 1.25 -0.859375 1.390625 -0.699219 C 1.53125 -0.539062 1.691406 -0.46875 1.871094 -0.46875 C 2.109375 -0.46875 2.441406 -0.628906 2.851562 -0.960938 Z M 2.851562 -0.960938 "/>
</g>
<g id="glyph-0-18">
<path d="M 4.089844 0 L 1.53125 -5.570312 L 1.53125 -1.148438 C 1.53125 -0.738281 1.570312 -0.488281 1.671875 -0.390625 C 1.789062 -0.25 1.980469 -0.179688 2.238281 -0.179688 L 2.46875 -0.179688 L 2.46875 0 L 0.171875 0 L 0.171875 -0.179688 L 0.398438 -0.179688 C 0.679688 -0.179688 0.878906 -0.261719 1 -0.429688 C 1.058594 -0.53125 1.101562 -0.769531 1.101562 -1.148438 L 1.101562 -5.46875 C 1.101562 -5.761719 1.070312 -5.96875 1.011719 -6.109375 C 0.960938 -6.199219 0.871094 -6.28125 0.75 -6.339844 C 0.628906 -6.398438 0.429688 -6.441406 0.171875 -6.441406 L 0.171875 -6.621094 L 2.039062 -6.621094 L 4.441406 -1.441406 L 6.808594 -6.621094 L 8.679688 -6.621094 L 8.679688 -6.441406 L 8.449219 -6.441406 C 8.171875 -6.441406 7.96875 -6.351562 7.851562 -6.191406 C 7.769531 -6.078125 7.738281 -5.839844 7.738281 -5.46875 L 7.738281 -1.148438 C 7.738281 -0.738281 7.78125 -0.488281 7.878906 -0.390625 C 8 -0.25 8.191406 -0.179688 8.449219 -0.179688 L 8.679688 -0.179688 L 8.679688 0 L 5.871094 0 L 5.871094 -0.179688 L 6.101562 -0.179688 C 6.378906 -0.179688 6.578125 -0.261719 6.699219 -0.429688 C 6.769531 -0.53125 6.808594 -0.769531 6.808594 -1.148438 L 6.808594 -5.570312 L 4.25 0 Z M 4.089844 0 "/>
</g>
<g id="glyph-0-19">
<path d="M 4.230469 -4.46875 L 4.230469 -1.761719 C 4.230469 -1.238281 4.238281 -0.929688 4.269531 -0.808594 C 4.289062 -0.691406 4.328125 -0.609375 4.390625 -0.570312 C 4.441406 -0.519531 4.5 -0.5 4.578125 -0.5 C 4.679688 -0.5 4.789062 -0.53125 4.921875 -0.589844 L 4.988281 -0.421875 L 3.648438 0.128906 L 3.429688 0.128906 L 3.429688 -0.808594 C 3.039062 -0.390625 2.75 -0.128906 2.550781 -0.03125 C 2.351562 0.0703125 2.128906 0.128906 1.910156 0.128906 C 1.648438 0.128906 1.429688 0.0585938 1.25 -0.078125 C 1.070312 -0.21875 0.941406 -0.410156 0.871094 -0.640625 C 0.800781 -0.859375 0.769531 -1.191406 0.769531 -1.609375 L 0.769531 -3.601562 C 0.769531 -3.808594 0.738281 -3.960938 0.699219 -4.039062 C 0.648438 -4.121094 0.578125 -4.191406 0.488281 -4.230469 C 0.398438 -4.269531 0.238281 -4.289062 0.0117188 -4.289062 L 0.0117188 -4.46875 L 1.578125 -4.46875 L 1.578125 -1.480469 C 1.578125 -1.058594 1.648438 -0.78125 1.789062 -0.648438 C 1.929688 -0.519531 2.109375 -0.460938 2.320312 -0.460938 C 2.460938 -0.460938 2.609375 -0.5 2.789062 -0.589844 C 2.96875 -0.679688 3.179688 -0.851562 3.429688 -1.101562 L 3.429688 -3.628906 C 3.429688 -3.878906 3.378906 -4.050781 3.289062 -4.140625 C 3.191406 -4.230469 3 -4.28125 2.710938 -4.289062 L 2.710938 -4.46875 Z M 4.230469 -4.46875 "/>
</g>
<g id="glyph-0-20">
<path d="M 1.609375 -5.941406 L 1.609375 -4.46875 L 2.660156 -4.46875 L 2.660156 -4.128906 L 1.609375 -4.128906 L 1.609375 -1.230469 C 1.609375 -0.941406 1.648438 -0.738281 1.730469 -0.640625 C 1.808594 -0.539062 1.921875 -0.488281 2.058594 -0.488281 C 2.160156 -0.488281 2.269531 -0.519531 2.371094 -0.589844 C 2.46875 -0.648438 2.539062 -0.75 2.601562 -0.890625 L 2.789062 -0.890625 C 2.671875 -0.570312 2.511719 -0.328125 2.308594 -0.171875 C 2.101562 -0.0117188 1.890625 0.0585938 1.671875 0.0585938 C 1.511719 0.0585938 1.359375 0.0195312 1.21875 -0.0585938 C 1.078125 -0.140625 0.96875 -0.25 0.910156 -0.410156 C 0.839844 -0.558594 0.808594 -0.800781 0.808594 -1.121094 L 0.808594 -4.128906 L 0.101562 -4.128906 L 0.101562 -4.289062 C 0.28125 -4.359375 0.460938 -4.480469 0.648438 -4.648438 C 0.828125 -4.820312 1 -5.019531 1.148438 -5.261719 C 1.21875 -5.378906 1.320312 -5.609375 1.460938 -5.941406 Z M 1.609375 -5.941406 "/>
</g>
<g id="glyph-1-0">
<path d="M 1.460938 -6.441406 L 1.519531 -6.621094 L 3.640625 -6.621094 C 4.53125 -6.621094 5.191406 -6.511719 5.621094 -6.308594 C 6.050781 -6.109375 6.398438 -5.78125 6.660156 -5.339844 C 6.921875 -4.898438 7.050781 -4.429688 7.050781 -3.929688 C 7.050781 -3.488281 6.96875 -3.070312 6.820312 -2.660156 C 6.671875 -2.25 6.5 -1.921875 6.320312 -1.679688 C 6.128906 -1.429688 5.839844 -1.160156 5.460938 -0.859375 C 5.070312 -0.558594 4.648438 -0.351562 4.199219 -0.210938 C 3.738281 -0.0703125 3.179688 0 2.5 0 L -0.289062 0 L -0.21875 -0.179688 C 0.0195312 -0.179688 0.191406 -0.210938 0.28125 -0.25 C 0.410156 -0.300781 0.511719 -0.371094 0.570312 -0.46875 C 0.660156 -0.609375 0.769531 -0.878906 0.890625 -1.300781 L 2.058594 -5.300781 C 2.148438 -5.621094 2.199219 -5.859375 2.199219 -6.039062 C 2.199219 -6.171875 2.148438 -6.269531 2.070312 -6.339844 C 1.980469 -6.398438 1.808594 -6.441406 1.570312 -6.441406 Z M 3.199219 -6.25 L 1.761719 -1.300781 C 1.648438 -0.921875 1.601562 -0.691406 1.601562 -0.609375 C 1.601562 -0.550781 1.609375 -0.5 1.648438 -0.460938 C 1.679688 -0.410156 1.730469 -0.378906 1.789062 -0.359375 C 1.871094 -0.328125 2.011719 -0.320312 2.199219 -0.320312 C 2.710938 -0.320312 3.179688 -0.371094 3.621094 -0.46875 C 4.058594 -0.570312 4.421875 -0.730469 4.699219 -0.949219 C 5.101562 -1.25 5.410156 -1.660156 5.648438 -2.191406 C 5.890625 -2.71875 6.011719 -3.328125 6.011719 -4.011719 C 6.011719 -4.769531 5.820312 -5.339844 5.460938 -5.710938 C 5.101562 -6.078125 4.570312 -6.269531 3.871094 -6.269531 C 3.691406 -6.269531 3.46875 -6.261719 3.199219 -6.25 Z M 3.199219 -6.25 "/>
</g>
<g id="glyph-2-0">
<path d="M 1.148438 -2.554688 C 1.371094 -2.777344 1.511719 -2.910156 1.554688 -2.945312 C 1.652344 -3.03125 1.765625 -3.101562 1.882812 -3.148438 C 1.996094 -3.191406 2.113281 -3.21875 2.234375 -3.21875 C 2.429688 -3.21875 2.597656 -3.164062 2.738281 -3.050781 C 2.878906 -2.941406 2.976562 -2.773438 3.023438 -2.554688 C 3.253906 -2.828125 3.449219 -3.011719 3.617188 -3.09375 C 3.78125 -3.179688 3.949219 -3.21875 4.117188 -3.21875 C 4.285156 -3.21875 4.429688 -3.179688 4.558594 -3.09375 C 4.683594 -3.011719 4.789062 -2.871094 4.863281 -2.675781 C 4.914062 -2.539062 4.941406 -2.332031 4.941406 -2.050781 L 4.941406 -0.707031 C 4.941406 -0.511719 4.957031 -0.371094 4.984375 -0.300781 C 5.003906 -0.253906 5.046875 -0.210938 5.109375 -0.175781 C 5.171875 -0.140625 5.269531 -0.125 5.410156 -0.125 L 5.410156 0 L 3.871094 0 L 3.871094 -0.125 L 3.933594 -0.125 C 4.066406 -0.125 4.171875 -0.148438 4.25 -0.203125 C 4.296875 -0.238281 4.332031 -0.292969 4.359375 -0.378906 C 4.367188 -0.414062 4.375 -0.523438 4.375 -0.707031 L 4.375 -2.050781 C 4.375 -2.304688 4.339844 -2.484375 4.285156 -2.597656 C 4.191406 -2.738281 4.054688 -2.8125 3.855469 -2.8125 C 3.730469 -2.8125 3.613281 -2.777344 3.492188 -2.722656 C 3.367188 -2.660156 3.21875 -2.546875 3.050781 -2.386719 L 3.046875 -2.34375 L 3.050781 -2.199219 L 3.050781 -0.707031 C 3.050781 -0.488281 3.058594 -0.355469 3.085938 -0.308594 C 3.109375 -0.253906 3.148438 -0.210938 3.21875 -0.175781 C 3.28125 -0.140625 3.394531 -0.125 3.554688 -0.125 L 3.554688 0 L 1.972656 0 L 1.972656 -0.125 C 2.140625 -0.125 2.261719 -0.140625 2.332031 -0.183594 C 2.394531 -0.222656 2.441406 -0.285156 2.472656 -0.371094 C 2.476562 -0.40625 2.484375 -0.519531 2.484375 -0.707031 L 2.484375 -2.050781 C 2.484375 -2.304688 2.441406 -2.492188 2.371094 -2.605469 C 2.269531 -2.742188 2.128906 -2.820312 1.953125 -2.820312 C 1.828125 -2.820312 1.699219 -2.785156 1.589844 -2.722656 C 1.394531 -2.625 1.246094 -2.511719 1.148438 -2.386719 L 1.148438 -0.707031 C 1.148438 -0.496094 1.160156 -0.363281 1.191406 -0.308594 C 1.21875 -0.246094 1.261719 -0.195312 1.316406 -0.167969 C 1.371094 -0.140625 1.484375 -0.125 1.660156 -0.125 L 1.660156 0 L 0.113281 0 L 0.113281 -0.125 C 0.253906 -0.125 0.351562 -0.140625 0.40625 -0.167969 C 0.460938 -0.195312 0.511719 -0.246094 0.539062 -0.316406 C 0.566406 -0.386719 0.582031 -0.511719 0.582031 -0.707031 L 0.582031 -1.902344 C 0.582031 -2.246094 0.566406 -2.472656 0.554688 -2.570312 C 0.539062 -2.640625 0.511719 -2.695312 0.476562 -2.722656 C 0.441406 -2.75 0.390625 -2.773438 0.335938 -2.773438 C 0.273438 -2.773438 0.195312 -2.75 0.113281 -2.714844 L 0.0546875 -2.84375 L 1 -3.21875 L 1.148438 -3.21875 Z M 1.148438 -2.554688 "/>
</g>
<g id="glyph-2-1">
<path d="M 1.996094 -0.449219 C 1.671875 -0.195312 1.46875 -0.0546875 1.386719 -0.0195312 C 1.261719 0.0273438 1.132812 0.0546875 0.992188 0.0546875 C 0.777344 0.0546875 0.601562 -0.015625 0.460938 -0.160156 C 0.320312 -0.300781 0.253906 -0.496094 0.253906 -0.742188 C 0.253906 -0.894531 0.28125 -1.027344 0.351562 -1.140625 C 0.441406 -1.296875 0.601562 -1.433594 0.832031 -1.574219 C 1.0625 -1.707031 1.449219 -1.875 1.996094 -2.070312 L 1.996094 -2.199219 C 1.996094 -2.507812 1.9375 -2.722656 1.839844 -2.84375 C 1.742188 -2.953125 1.597656 -3.015625 1.414062 -3.015625 C 1.265625 -3.015625 1.15625 -2.976562 1.070312 -2.898438 C 0.980469 -2.8125 0.9375 -2.730469 0.9375 -2.632812 L 0.945312 -2.4375 C 0.945312 -2.324219 0.917969 -2.246094 0.859375 -2.191406 C 0.804688 -2.136719 0.742188 -2.105469 0.65625 -2.105469 C 0.574219 -2.105469 0.503906 -2.136719 0.449219 -2.191406 C 0.390625 -2.246094 0.371094 -2.332031 0.371094 -2.4375 C 0.371094 -2.632812 0.46875 -2.808594 0.671875 -2.976562 C 0.867188 -3.136719 1.148438 -3.21875 1.511719 -3.21875 C 1.792969 -3.21875 2.015625 -3.171875 2.199219 -3.078125 C 2.332031 -3.011719 2.429688 -2.898438 2.492188 -2.75 C 2.535156 -2.652344 2.554688 -2.449219 2.554688 -2.148438 L 2.554688 -1.085938 C 2.554688 -0.785156 2.554688 -0.601562 2.570312 -0.539062 C 2.582031 -0.46875 2.597656 -0.425781 2.625 -0.40625 C 2.652344 -0.378906 2.679688 -0.371094 2.714844 -0.371094 C 2.75 -0.371094 2.785156 -0.378906 2.8125 -0.390625 C 2.863281 -0.421875 2.953125 -0.503906 3.09375 -0.644531 L 3.09375 -0.449219 C 2.835938 -0.113281 2.589844 0.0546875 2.359375 0.0546875 C 2.246094 0.0546875 2.15625 0.015625 2.09375 -0.0546875 C 2.023438 -0.125 1.996094 -0.257812 1.996094 -0.449219 Z M 1.996094 -0.671875 L 1.996094 -1.867188 C 1.644531 -1.730469 1.421875 -1.632812 1.324219 -1.574219 C 1.140625 -1.476562 1.015625 -1.371094 0.9375 -1.261719 C 0.859375 -1.148438 0.824219 -1.027344 0.824219 -0.902344 C 0.824219 -0.734375 0.875 -0.601562 0.972656 -0.488281 C 1.070312 -0.378906 1.183594 -0.328125 1.308594 -0.328125 C 1.476562 -0.328125 1.707031 -0.441406 1.996094 -0.671875 Z M 1.996094 -0.671875 "/>
</g>
<g id="glyph-2-2">
<path d="M 0.0898438 -3.128906 L 1.566406 -3.128906 L 1.566406 -3.003906 C 1.46875 -3.003906 1.40625 -2.980469 1.371094 -2.953125 C 1.328125 -2.925781 1.316406 -2.882812 1.316406 -2.828125 C 1.316406 -2.773438 1.351562 -2.6875 1.433594 -2.574219 C 1.457031 -2.535156 1.492188 -2.476562 1.546875 -2.40625 L 1.765625 -2.050781 L 2.023438 -2.40625 C 2.183594 -2.632812 2.269531 -2.773438 2.269531 -2.835938 C 2.269531 -2.878906 2.246094 -2.917969 2.210938 -2.953125 C 2.171875 -2.980469 2.105469 -3.003906 2.023438 -3.003906 L 2.023438 -3.128906 L 3.078125 -3.128906 L 3.078125 -3.003906 C 2.96875 -2.996094 2.878906 -2.96875 2.792969 -2.910156 C 2.679688 -2.828125 2.527344 -2.660156 2.332031 -2.40625 L 1.902344 -1.835938 L 2.6875 -0.714844 C 2.878906 -0.433594 3.011719 -0.273438 3.09375 -0.21875 C 3.179688 -0.160156 3.28125 -0.125 3.414062 -0.125 L 3.414062 0 L 1.9375 0 L 1.9375 -0.125 C 2.035156 -0.125 2.121094 -0.148438 2.175781 -0.1875 C 2.21875 -0.21875 2.238281 -0.257812 2.238281 -0.316406 C 2.238281 -0.371094 2.164062 -0.503906 2.023438 -0.714844 L 1.566406 -1.386719 L 1.0625 -0.714844 C 0.910156 -0.503906 0.832031 -0.386719 0.832031 -0.34375 C 0.832031 -0.285156 0.855469 -0.238281 0.910156 -0.195312 C 0.960938 -0.152344 1.035156 -0.125 1.140625 -0.125 L 1.140625 0 L 0.117188 0 L 0.117188 -0.125 C 0.195312 -0.132812 0.265625 -0.160156 0.328125 -0.210938 C 0.414062 -0.273438 0.558594 -0.441406 0.769531 -0.714844 L 1.429688 -1.589844 L 0.832031 -2.449219 C 0.664062 -2.6875 0.53125 -2.84375 0.441406 -2.90625 C 0.34375 -2.96875 0.230469 -3.003906 0.0898438 -3.003906 Z M 0.0898438 -3.128906 "/>
</g>
<g id="glyph-2-3">
<path d="M 1.015625 -4.859375 C 1.113281 -4.859375 1.191406 -4.824219 1.261719 -4.761719 C 1.324219 -4.691406 1.359375 -4.613281 1.359375 -4.515625 C 1.359375 -4.417969 1.324219 -4.339844 1.261719 -4.269531 C 1.191406 -4.199219 1.113281 -4.164062 1.015625 -4.164062 C 0.917969 -4.164062 0.839844 -4.199219 0.769531 -4.269531 C 0.699219 -4.339844 0.664062 -4.417969 0.664062 -4.515625 C 0.664062 -4.613281 0.691406 -4.691406 0.761719 -4.761719 C 0.832031 -4.824219 0.917969 -4.859375 1.015625 -4.859375 Z M 1.300781 -3.21875 L 1.300781 -0.707031 C 1.300781 -0.511719 1.316406 -0.378906 1.34375 -0.316406 C 1.371094 -0.246094 1.414062 -0.195312 1.46875 -0.167969 C 1.527344 -0.140625 1.625 -0.125 1.769531 -0.125 L 1.769531 0 L 0.253906 0 L 0.253906 -0.125 C 0.40625 -0.125 0.503906 -0.140625 0.558594 -0.167969 C 0.609375 -0.195312 0.652344 -0.246094 0.679688 -0.316406 C 0.707031 -0.386719 0.726562 -0.511719 0.726562 -0.707031 L 0.726562 -1.910156 C 0.726562 -2.246094 0.714844 -2.472656 0.699219 -2.574219 C 0.6875 -2.644531 0.65625 -2.695312 0.621094 -2.722656 C 0.589844 -2.75 0.539062 -2.773438 0.484375 -2.773438 C 0.421875 -2.773438 0.34375 -2.75 0.253906 -2.714844 L 0.203125 -2.84375 L 1.148438 -3.21875 Z M 1.300781 -3.21875 "/>
</g>
<g id="glyph-2-4">
<path d="M 1.132812 -2.5625 C 1.496094 -2.996094 1.847656 -3.21875 2.183594 -3.21875 C 2.351562 -3.21875 2.492188 -3.179688 2.617188 -3.09375 C 2.742188 -3.011719 2.84375 -2.871094 2.917969 -2.675781 C 2.960938 -2.535156 2.988281 -2.324219 2.988281 -2.042969 L 2.988281 -0.707031 C 2.988281 -0.511719 3.003906 -0.371094 3.039062 -0.300781 C 3.058594 -0.246094 3.101562 -0.195312 3.15625 -0.167969 C 3.214844 -0.140625 3.316406 -0.125 3.472656 -0.125 L 3.472656 0 L 1.917969 0 L 1.917969 -0.125 L 1.988281 -0.125 C 2.128906 -0.125 2.234375 -0.148438 2.289062 -0.1875 C 2.34375 -0.230469 2.386719 -0.300781 2.414062 -0.386719 C 2.421875 -0.421875 2.429688 -0.523438 2.429688 -0.707031 L 2.429688 -1.988281 C 2.429688 -2.269531 2.386719 -2.476562 2.316406 -2.605469 C 2.238281 -2.730469 2.113281 -2.800781 1.9375 -2.800781 C 1.664062 -2.800781 1.398438 -2.652344 1.132812 -2.359375 L 1.132812 -0.707031 C 1.132812 -0.496094 1.140625 -0.363281 1.167969 -0.316406 C 1.195312 -0.246094 1.246094 -0.195312 1.300781 -0.167969 C 1.359375 -0.140625 1.46875 -0.125 1.636719 -0.125 L 1.636719 0 L 0.0898438 0 L 0.0898438 -0.125 L 0.160156 -0.125 C 0.316406 -0.125 0.425781 -0.160156 0.484375 -0.246094 C 0.539062 -0.320312 0.566406 -0.476562 0.566406 -0.707031 L 0.566406 -1.867188 C 0.566406 -2.246094 0.554688 -2.472656 0.539062 -2.554688 C 0.523438 -2.640625 0.496094 -2.695312 0.460938 -2.722656 C 0.425781 -2.75 0.378906 -2.773438 0.320312 -2.773438 C 0.253906 -2.773438 0.175781 -2.75 0.0898438 -2.714844 L 0.0429688 -2.84375 L 0.988281 -3.21875 L 1.132812 -3.21875 Z M 1.132812 -2.5625 "/>
</g>
<g id="glyph-3-0">
<path d="M 0 -4.089844 L -5.570312 -1.53125 L -1.148438 -1.53125 C -0.738281 -1.53125 -0.488281 -1.570312 -0.390625 -1.671875 C -0.25 -1.789062 -0.179688 -1.980469 -0.179688 -2.238281 L -0.179688 -2.46875 L 0 -2.46875 L 0 -0.171875 L -0.179688 -0.171875 L -0.179688 -0.398438 C -0.179688 -0.679688 -0.261719 -0.878906 -0.429688 -1 C -0.53125 -1.058594 -0.769531 -1.101562 -1.148438 -1.101562 L -5.46875 -1.101562 C -5.761719 -1.101562 -5.96875 -1.070312 -6.109375 -1.011719 C -6.199219 -0.960938 -6.28125 -0.871094 -6.339844 -0.75 C -6.398438 -0.628906 -6.441406 -0.429688 -6.441406 -0.171875 L -6.621094 -0.171875 L -6.621094 -2.039062 L -1.441406 -4.441406 L -6.621094 -6.808594 L -6.621094 -8.679688 L -6.441406 -8.679688 L -6.441406 -8.449219 C -6.441406 -8.171875 -6.351562 -7.96875 -6.191406 -7.851562 C -6.078125 -7.769531 -5.839844 -7.738281 -5.46875 -7.738281 L -1.148438 -7.738281 C -0.738281 -7.738281 -0.488281 -7.78125 -0.390625 -7.878906 C -0.25 -8 -0.179688 -8.191406 -0.179688 -8.449219 L -0.179688 -8.679688 L 0 -8.679688 L 0 -5.871094 L -0.179688 -5.871094 L -0.179688 -6.101562 C -0.179688 -6.378906 -0.261719 -6.578125 -0.429688 -6.699219 C -0.53125 -6.769531 -0.769531 -6.808594 -1.148438 -6.808594 L -5.570312 -6.808594 L 0 -4.25 Z M 0 -4.089844 "/>
</g>
<g id="glyph-3-1">
<path d="M -2.789062 -1.058594 C -2.121094 -1.058594 -1.601562 -1.21875 -1.21875 -1.550781 C -0.839844 -1.871094 -0.660156 -2.261719 -0.660156 -2.699219 C -0.660156 -2.980469 -0.738281 -3.230469 -0.898438 -3.449219 C -1.058594 -3.671875 -1.328125 -3.851562 -1.730469 -4 L -1.628906 -4.160156 C -1.179688 -4.078125 -0.769531 -3.878906 -0.410156 -3.558594 C -0.0507812 -3.230469 0.128906 -2.820312 0.128906 -2.320312 C 0.128906 -1.78125 -0.0703125 -1.320312 -0.488281 -0.941406 C -0.910156 -0.558594 -1.46875 -0.371094 -2.179688 -0.371094 C -2.941406 -0.371094 -3.539062 -0.558594 -3.96875 -0.960938 C -4.390625 -1.351562 -4.609375 -1.839844 -4.609375 -2.441406 C -4.609375 -2.941406 -4.441406 -3.351562 -4.109375 -3.671875 C -3.78125 -3.988281 -3.339844 -4.160156 -2.789062 -4.160156 Z M -3.070312 -1.058594 L -3.070312 -3.128906 C -3.351562 -3.109375 -3.558594 -3.078125 -3.679688 -3.03125 C -3.859375 -2.949219 -4 -2.828125 -4.101562 -2.671875 C -4.199219 -2.511719 -4.261719 -2.339844 -4.261719 -2.160156 C -4.261719 -1.890625 -4.148438 -1.648438 -3.941406 -1.441406 C -3.730469 -1.21875 -3.441406 -1.101562 -3.070312 -1.058594 Z M -3.070312 -1.058594 "/>
</g>
<g id="glyph-3-2">
<path d="M -0.640625 -2.851562 C -0.28125 -2.390625 -0.078125 -2.101562 -0.03125 -1.980469 C 0.0390625 -1.800781 0.078125 -1.621094 0.078125 -1.421875 C 0.078125 -1.109375 -0.0195312 -0.859375 -0.230469 -0.660156 C -0.429688 -0.460938 -0.710938 -0.359375 -1.058594 -0.359375 C -1.28125 -0.359375 -1.46875 -0.398438 -1.628906 -0.5 C -1.851562 -0.628906 -2.050781 -0.859375 -2.25 -1.191406 C -2.441406 -1.519531 -2.679688 -2.070312 -2.960938 -2.851562 L -3.140625 -2.851562 C -3.578125 -2.851562 -3.890625 -2.769531 -4.058594 -2.628906 C -4.21875 -2.488281 -4.308594 -2.28125 -4.308594 -2.019531 C -4.308594 -1.808594 -4.25 -1.648438 -4.140625 -1.53125 C -4.019531 -1.398438 -3.898438 -1.339844 -3.761719 -1.339844 L -3.480469 -1.351562 C -3.320312 -1.351562 -3.210938 -1.308594 -3.128906 -1.230469 C -3.050781 -1.148438 -3.011719 -1.058594 -3.011719 -0.941406 C -3.011719 -0.820312 -3.050781 -0.71875 -3.128906 -0.640625 C -3.210938 -0.558594 -3.328125 -0.53125 -3.480469 -0.53125 C -3.761719 -0.53125 -4.011719 -0.671875 -4.25 -0.960938 C -4.480469 -1.238281 -4.601562 -1.640625 -4.601562 -2.160156 C -4.601562 -2.558594 -4.53125 -2.878906 -4.398438 -3.140625 C -4.300781 -3.328125 -4.140625 -3.46875 -3.929688 -3.558594 C -3.789062 -3.621094 -3.5 -3.648438 -3.070312 -3.648438 L -1.550781 -3.648438 C -1.121094 -3.648438 -0.859375 -3.648438 -0.769531 -3.671875 C -0.671875 -3.691406 -0.609375 -3.710938 -0.578125 -3.75 C -0.539062 -3.789062 -0.53125 -3.828125 -0.53125 -3.878906 C -0.53125 -3.929688 -0.539062 -3.980469 -0.558594 -4.019531 C -0.601562 -4.089844 -0.71875 -4.21875 -0.921875 -4.421875 L -0.640625 -4.421875 C -0.160156 -4.050781 0.078125 -3.699219 0.078125 -3.371094 C 0.078125 -3.210938 0.0195312 -3.078125 -0.078125 -2.988281 C -0.179688 -2.890625 -0.371094 -2.851562 -0.640625 -2.851562 Z M -0.960938 -2.851562 L -2.671875 -2.851562 C -2.46875 -2.351562 -2.328125 -2.03125 -2.25 -1.890625 C -2.109375 -1.628906 -1.960938 -1.449219 -1.800781 -1.339844 C -1.640625 -1.230469 -1.46875 -1.179688 -1.289062 -1.179688 C -1.050781 -1.179688 -0.859375 -1.25 -0.699219 -1.390625 C -0.539062 -1.53125 -0.46875 -1.691406 -0.46875 -1.871094 C -0.46875 -2.109375 -0.628906 -2.441406 -0.960938 -2.851562 Z M -0.960938 -2.851562 "/>
</g>
<g id="glyph-3-3">
<path d="M -3.660156 -1.621094 C -4.28125 -2.140625 -4.601562 -2.640625 -4.601562 -3.121094 C -4.601562 -3.359375 -4.539062 -3.558594 -4.421875 -3.738281 C -4.300781 -3.921875 -4.101562 -4.058594 -3.820312 -4.171875 C -3.621094 -4.230469 -3.320312 -4.269531 -2.921875 -4.269531 L -1.011719 -4.269531 C -0.730469 -4.269531 -0.53125 -4.289062 -0.429688 -4.339844 C -0.351562 -4.371094 -0.28125 -4.429688 -0.238281 -4.511719 C -0.199219 -4.589844 -0.179688 -4.738281 -0.179688 -4.960938 L 0 -4.960938 L 0 -2.738281 L -0.179688 -2.738281 L -0.179688 -2.839844 C -0.179688 -3.039062 -0.210938 -3.191406 -0.269531 -3.269531 C -0.328125 -3.351562 -0.429688 -3.410156 -0.550781 -3.449219 C -0.601562 -3.460938 -0.75 -3.46875 -1.011719 -3.46875 L -2.839844 -3.46875 C -3.238281 -3.46875 -3.539062 -3.410156 -3.71875 -3.308594 C -3.898438 -3.199219 -4 -3.019531 -4 -2.769531 C -4 -2.378906 -3.789062 -2 -3.371094 -1.621094 L -1.011719 -1.621094 C -0.710938 -1.621094 -0.519531 -1.628906 -0.449219 -1.671875 C -0.351562 -1.710938 -0.28125 -1.78125 -0.238281 -1.859375 C -0.199219 -1.941406 -0.179688 -2.101562 -0.179688 -2.339844 L 0 -2.339844 L 0 -0.128906 L -0.179688 -0.128906 L -0.179688 -0.230469 C -0.179688 -0.449219 -0.230469 -0.609375 -0.351562 -0.691406 C -0.460938 -0.769531 -0.679688 -0.808594 -1.011719 -0.808594 L -2.671875 -0.808594 C -3.210938 -0.808594 -3.53125 -0.789062 -3.648438 -0.769531 C -3.769531 -0.75 -3.851562 -0.710938 -3.890625 -0.660156 C -3.929688 -0.609375 -3.960938 -0.539062 -3.960938 -0.460938 C -3.960938 -0.359375 -3.929688 -0.25 -3.878906 -0.128906 L -4.058594 -0.0585938 L -4.601562 -1.410156 L -4.601562 -1.621094 Z M -3.660156 -1.621094 "/>
</g>
<g id="glyph-3-4">
</g>
<g id="glyph-3-5">
<path d="M -6.261719 -2.050781 L -3.660156 -2.050781 L -3.660156 -3.25 C -3.660156 -3.53125 -3.71875 -3.730469 -3.839844 -3.859375 C -3.960938 -3.980469 -4.199219 -4.070312 -4.570312 -4.121094 L -4.570312 -4.300781 L -2.320312 -4.300781 L -2.320312 -4.121094 C -2.578125 -4.109375 -2.769531 -4.070312 -2.890625 -4.011719 C -3.011719 -3.949219 -3.101562 -3.859375 -3.160156 -3.75 C -3.21875 -3.628906 -3.25 -3.46875 -3.25 -3.25 L -3.25 -2.050781 L -1.171875 -2.050781 C -0.828125 -2.050781 -0.609375 -2.070312 -0.511719 -2.109375 C -0.429688 -2.140625 -0.359375 -2.210938 -0.300781 -2.308594 C -0.21875 -2.449219 -0.179688 -2.601562 -0.179688 -2.761719 L -0.179688 -3 L 0 -3 L 0 -0.160156 L -0.179688 -0.160156 L -0.179688 -0.398438 C -0.179688 -0.671875 -0.261719 -0.871094 -0.421875 -0.988281 C -0.519531 -1.070312 -0.769531 -1.109375 -1.171875 -1.109375 L -5.449219 -1.109375 C -5.78125 -1.109375 -6 -1.078125 -6.109375 -1.039062 C -6.191406 -1.011719 -6.261719 -0.941406 -6.320312 -0.839844 C -6.398438 -0.699219 -6.441406 -0.550781 -6.441406 -0.398438 L -6.441406 -0.160156 L -6.621094 -0.160156 L -6.621094 -5.089844 L -5.171875 -5.148438 L -5.171875 -4.980469 C -5.46875 -4.890625 -5.699219 -4.789062 -5.839844 -4.679688 C -5.980469 -4.570312 -6.089844 -4.429688 -6.160156 -4.269531 C -6.21875 -4.101562 -6.261719 -3.851562 -6.261719 -3.511719 Z M -6.261719 -2.050781 "/>
</g>
<g id="glyph-3-6">
<path d="M -4.601562 -3.199219 L -3.078125 -3.199219 L -3.078125 -3.039062 C -3.558594 -2.921875 -3.878906 -2.761719 -4.058594 -2.570312 C -4.230469 -2.371094 -4.320312 -2.128906 -4.320312 -1.828125 C -4.320312 -1.589844 -4.261719 -1.410156 -4.140625 -1.269531 C -4.019531 -1.128906 -3.878906 -1.058594 -3.738281 -1.058594 C -3.550781 -1.058594 -3.390625 -1.109375 -3.269531 -1.21875 C -3.128906 -1.320312 -2.988281 -1.519531 -2.839844 -1.839844 L -2.5 -2.550781 C -2.171875 -3.210938 -1.738281 -3.539062 -1.21875 -3.539062 C -0.808594 -3.539062 -0.480469 -3.378906 -0.238281 -3.078125 C 0 -2.769531 0.128906 -2.429688 0.128906 -2.050781 C 0.128906 -1.769531 0.078125 -1.460938 -0.0117188 -1.109375 C -0.0390625 -1 -0.0585938 -0.910156 -0.0585938 -0.839844 C -0.0585938 -0.761719 -0.0195312 -0.710938 0.0585938 -0.671875 L 0.0585938 -0.511719 L -1.53125 -0.511719 L -1.53125 -0.671875 C -1.070312 -0.761719 -0.71875 -0.929688 -0.488281 -1.191406 C -0.261719 -1.449219 -0.148438 -1.738281 -0.148438 -2.058594 C -0.148438 -2.28125 -0.210938 -2.460938 -0.351562 -2.601562 C -0.480469 -2.738281 -0.640625 -2.820312 -0.828125 -2.820312 C -1.050781 -2.820312 -1.230469 -2.738281 -1.390625 -2.578125 C -1.539062 -2.421875 -1.730469 -2.101562 -1.96875 -1.628906 C -2.199219 -1.160156 -2.410156 -0.851562 -2.609375 -0.710938 C -2.789062 -0.558594 -3.03125 -0.488281 -3.308594 -0.488281 C -3.671875 -0.488281 -3.980469 -0.609375 -4.230469 -0.871094 C -4.46875 -1.121094 -4.601562 -1.449219 -4.601562 -1.851562 C -4.601562 -2.019531 -4.558594 -2.230469 -4.488281 -2.488281 C -4.441406 -2.648438 -4.421875 -2.761719 -4.421875 -2.820312 C -4.421875 -2.871094 -4.429688 -2.910156 -4.449219 -2.941406 C -4.46875 -2.960938 -4.519531 -3 -4.601562 -3.039062 Z M -4.601562 -3.199219 "/>
</g>
<g id="glyph-3-7">
<path d="M -6.941406 -1.449219 C -6.941406 -1.589844 -6.890625 -1.699219 -6.800781 -1.800781 C -6.699219 -1.890625 -6.589844 -1.941406 -6.449219 -1.941406 C -6.308594 -1.941406 -6.199219 -1.890625 -6.101562 -1.800781 C -6 -1.699219 -5.949219 -1.589844 -5.949219 -1.449219 C -5.949219 -1.308594 -6 -1.199219 -6.101562 -1.101562 C -6.199219 -1 -6.308594 -0.949219 -6.449219 -0.949219 C -6.589844 -0.949219 -6.699219 -0.988281 -6.800781 -1.089844 C -6.890625 -1.191406 -6.941406 -1.308594 -6.941406 -1.449219 Z M -4.601562 -1.859375 L -1.011719 -1.859375 C -0.730469 -1.859375 -0.539062 -1.878906 -0.449219 -1.921875 C -0.351562 -1.960938 -0.28125 -2.019531 -0.238281 -2.101562 C -0.199219 -2.179688 -0.179688 -2.320312 -0.179688 -2.53125 L 0 -2.53125 L 0 -0.359375 L -0.179688 -0.359375 C -0.179688 -0.578125 -0.199219 -0.71875 -0.238281 -0.800781 C -0.28125 -0.871094 -0.351562 -0.929688 -0.449219 -0.96875 C -0.550781 -1.011719 -0.730469 -1.039062 -1.011719 -1.039062 L -2.730469 -1.039062 C -3.210938 -1.039062 -3.53125 -1.019531 -3.679688 -1 C -3.78125 -0.980469 -3.851562 -0.941406 -3.890625 -0.890625 C -3.929688 -0.839844 -3.960938 -0.769531 -3.960938 -0.691406 C -3.960938 -0.601562 -3.929688 -0.488281 -3.878906 -0.359375 L -4.058594 -0.289062 L -4.601562 -1.640625 Z M -4.601562 -1.859375 "/>
</g>
<g id="glyph-3-8">
<path d="M -3.699219 -1.539062 C -4.300781 -1.96875 -4.601562 -2.441406 -4.601562 -2.941406 C -4.601562 -3.398438 -4.398438 -3.800781 -4.011719 -4.140625 C -3.621094 -4.480469 -3.089844 -4.648438 -2.410156 -4.648438 C -1.609375 -4.648438 -0.96875 -4.378906 -0.488281 -3.859375 C -0.0703125 -3.398438 0.128906 -2.898438 0.128906 -2.351562 C 0.128906 -2.089844 0.078125 -1.820312 -0.0117188 -1.550781 C -0.101562 -1.28125 -0.238281 -1.011719 -0.429688 -0.730469 L -5.058594 -0.730469 C -5.570312 -0.730469 -5.878906 -0.710938 -6 -0.691406 C -6.121094 -0.671875 -6.199219 -0.628906 -6.238281 -0.578125 C -6.28125 -0.519531 -6.300781 -0.460938 -6.300781 -0.390625 C -6.300781 -0.289062 -6.269531 -0.179688 -6.230469 -0.0390625 L -6.398438 0.0117188 L -6.941406 -1.320312 L -6.941406 -1.539062 Z M -3.390625 -1.539062 L -0.710938 -1.539062 C -0.550781 -1.699219 -0.421875 -1.871094 -0.339844 -2.050781 C -0.261719 -2.230469 -0.21875 -2.410156 -0.21875 -2.601562 C -0.21875 -2.890625 -0.378906 -3.160156 -0.710938 -3.421875 C -1.03125 -3.679688 -1.511719 -3.808594 -2.128906 -3.808594 C -2.699219 -3.808594 -3.140625 -3.679688 -3.449219 -3.421875 C -3.75 -3.160156 -3.910156 -2.871094 -3.910156 -2.550781 C -3.910156 -2.371094 -3.859375 -2.199219 -3.78125 -2.039062 C -3.710938 -1.898438 -3.578125 -1.738281 -3.390625 -1.539062 Z M -3.390625 -1.539062 "/>
</g>
<g id="glyph-3-9">
<path d="M -6.941406 -1.851562 L -1.011719 -1.851562 C -0.730469 -1.851562 -0.539062 -1.871094 -0.449219 -1.910156 C -0.359375 -1.949219 -0.289062 -2.011719 -0.25 -2.101562 C -0.199219 -2.179688 -0.179688 -2.339844 -0.179688 -2.570312 L 0 -2.570312 L 0 -0.378906 L -0.179688 -0.378906 C -0.179688 -0.578125 -0.199219 -0.71875 -0.238281 -0.800781 C -0.28125 -0.871094 -0.351562 -0.929688 -0.449219 -0.96875 C -0.550781 -1.011719 -0.730469 -1.039062 -1.011719 -1.039062 L -5.070312 -1.039062 C -5.570312 -1.039062 -5.878906 -1.019531 -6 -1 C -6.121094 -0.980469 -6.199219 -0.941406 -6.238281 -0.890625 C -6.28125 -0.839844 -6.300781 -0.78125 -6.300781 -0.699219 C -6.300781 -0.621094 -6.269531 -0.511719 -6.230469 -0.378906 L -6.398438 -0.300781 L -6.941406 -1.628906 Z M -6.941406 -1.851562 "/>
</g>
<g id="glyph-3-10">
<path d="M -2.21875 -4.578125 L -2.21875 -2.011719 L -1.171875 -1.558594 C -0.910156 -1.449219 -0.71875 -1.398438 -0.601562 -1.398438 C -0.488281 -1.398438 -0.398438 -1.441406 -0.320312 -1.539062 C -0.238281 -1.628906 -0.199219 -1.839844 -0.179688 -2.160156 L 0 -2.160156 L 0 -0.078125 L -0.179688 -0.078125 C -0.21875 -0.351562 -0.289062 -0.53125 -0.371094 -0.621094 C -0.53125 -0.78125 -0.839844 -0.960938 -1.320312 -1.171875 L -6.769531 -3.5 L -6.769531 -3.671875 L -1.261719 -5.96875 C -0.820312 -6.148438 -0.53125 -6.320312 -0.398438 -6.46875 C -0.269531 -6.621094 -0.199219 -6.828125 -0.179688 -7.109375 L 0 -7.109375 L 0 -4.5 L -0.179688 -4.5 C -0.191406 -4.761719 -0.230469 -4.929688 -0.308594 -5.03125 C -0.378906 -5.121094 -0.46875 -5.171875 -0.589844 -5.171875 C -0.730469 -5.171875 -0.949219 -5.101562 -1.261719 -4.980469 Z M -2.578125 -4.441406 L -5.25 -3.320312 L -2.578125 -2.160156 Z M -2.578125 -4.441406 "/>
</g>
<g id="glyph-3-11">
<path d="M -4.601562 -1.621094 L -3.601562 -1.621094 C -4.261719 -1.988281 -4.601562 -2.371094 -4.601562 -2.769531 C -4.601562 -2.949219 -4.539062 -3.089844 -4.441406 -3.210938 C -4.328125 -3.328125 -4.199219 -3.390625 -4.058594 -3.390625 C -3.929688 -3.390625 -3.820312 -3.339844 -3.738281 -3.261719 C -3.648438 -3.179688 -3.609375 -3.078125 -3.609375 -2.960938 C -3.609375 -2.839844 -3.660156 -2.71875 -3.78125 -2.578125 C -3.890625 -2.441406 -3.949219 -2.328125 -3.949219 -2.269531 C -3.949219 -2.210938 -3.910156 -2.140625 -3.851562 -2.078125 C -3.710938 -1.929688 -3.488281 -1.78125 -3.191406 -1.621094 L -1.039062 -1.621094 C -0.789062 -1.621094 -0.601562 -1.648438 -0.480469 -1.710938 C -0.390625 -1.75 -0.320312 -1.828125 -0.261719 -1.941406 C -0.199219 -2.039062 -0.179688 -2.199219 -0.179688 -2.398438 L 0 -2.398438 L 0 -0.109375 L -0.179688 -0.109375 C -0.179688 -0.328125 -0.210938 -0.5 -0.28125 -0.621094 C -0.328125 -0.699219 -0.410156 -0.75 -0.53125 -0.789062 C -0.589844 -0.808594 -0.75 -0.820312 -1.011719 -0.820312 L -2.738281 -0.820312 C -3.261719 -0.820312 -3.570312 -0.800781 -3.671875 -0.78125 C -3.769531 -0.761719 -3.839844 -0.71875 -3.890625 -0.660156 C -3.929688 -0.601562 -3.960938 -0.53125 -3.960938 -0.449219 C -3.960938 -0.351562 -3.929688 -0.230469 -3.878906 -0.109375 L -4.058594 -0.0585938 L -4.601562 -1.421875 Z M -4.601562 -1.621094 "/>
</g>
<g id="glyph-3-12">
<path d="M 1.949219 -3.109375 L 2.128906 -3.109375 C 1.878906 -2.609375 1.589844 -2.199219 1.261719 -1.878906 C 0.78125 -1.398438 0.230469 -1.039062 -0.398438 -0.789062 C -1.039062 -0.53125 -1.699219 -0.410156 -2.398438 -0.410156 C -3.398438 -0.410156 -4.320312 -0.648438 -5.160156 -1.148438 C -5.988281 -1.648438 -6.578125 -2.300781 -6.941406 -3.109375 L -6.738281 -3.109375 C -6.519531 -2.699219 -6.210938 -2.371094 -5.828125 -2.109375 C -5.441406 -1.851562 -4.949219 -1.660156 -4.371094 -1.539062 C -3.78125 -1.410156 -3.160156 -1.351562 -2.519531 -1.351562 C -1.820312 -1.351562 -1.191406 -1.398438 -0.628906 -1.511719 C -0.179688 -1.589844 0.171875 -1.699219 0.441406 -1.820312 C 0.710938 -1.941406 0.96875 -2.101562 1.230469 -2.300781 C 1.480469 -2.5 1.71875 -2.769531 1.949219 -3.109375 Z M 1.949219 -3.109375 "/>
</g>
<g id="glyph-3-13">
<path d="M -3.648438 -1.640625 C -3.96875 -1.960938 -4.160156 -2.160156 -4.210938 -2.21875 C -4.328125 -2.359375 -4.429688 -2.519531 -4.5 -2.691406 C -4.558594 -2.851562 -4.601562 -3.019531 -4.601562 -3.191406 C -4.601562 -3.46875 -4.519531 -3.710938 -4.359375 -3.910156 C -4.199219 -4.109375 -3.960938 -4.25 -3.648438 -4.320312 C -4.039062 -4.648438 -4.300781 -4.929688 -4.421875 -5.171875 C -4.539062 -5.398438 -4.601562 -5.640625 -4.601562 -5.878906 C -4.601562 -6.121094 -4.539062 -6.328125 -4.421875 -6.511719 C -4.300781 -6.691406 -4.101562 -6.839844 -3.820312 -6.949219 C -3.628906 -7.019531 -3.328125 -7.058594 -2.929688 -7.058594 L -1.011719 -7.058594 C -0.730469 -7.058594 -0.53125 -7.078125 -0.429688 -7.121094 C -0.359375 -7.148438 -0.300781 -7.210938 -0.25 -7.300781 C -0.199219 -7.390625 -0.179688 -7.53125 -0.179688 -7.730469 L 0 -7.730469 L 0 -5.53125 L -0.179688 -5.53125 L -0.179688 -5.621094 C -0.179688 -5.808594 -0.210938 -5.960938 -0.289062 -6.070312 C -0.339844 -6.140625 -0.421875 -6.191406 -0.539062 -6.230469 C -0.589844 -6.238281 -0.75 -6.25 -1.011719 -6.25 L -2.929688 -6.25 C -3.289062 -6.25 -3.550781 -6.199219 -3.710938 -6.121094 C -3.910156 -5.988281 -4.019531 -5.789062 -4.019531 -5.511719 C -4.019531 -5.328125 -3.96875 -5.160156 -3.890625 -4.988281 C -3.800781 -4.808594 -3.640625 -4.601562 -3.410156 -4.359375 L -3.351562 -4.351562 L -3.140625 -4.359375 L -1.011719 -4.359375 C -0.699219 -4.359375 -0.511719 -4.371094 -0.441406 -4.410156 C -0.359375 -4.441406 -0.300781 -4.5 -0.25 -4.601562 C -0.199219 -4.691406 -0.179688 -4.851562 -0.179688 -5.078125 L 0 -5.078125 L 0 -2.820312 L -0.179688 -2.820312 C -0.179688 -3.058594 -0.199219 -3.230469 -0.261719 -3.328125 C -0.320312 -3.421875 -0.410156 -3.488281 -0.53125 -3.53125 C -0.578125 -3.539062 -0.738281 -3.550781 -1.011719 -3.550781 L -2.929688 -3.550781 C -3.289062 -3.550781 -3.558594 -3.488281 -3.71875 -3.390625 C -3.921875 -3.238281 -4.03125 -3.039062 -4.03125 -2.789062 C -4.03125 -2.609375 -3.980469 -2.429688 -3.890625 -2.269531 C -3.75 -1.988281 -3.589844 -1.78125 -3.410156 -1.640625 L -1.011719 -1.640625 C -0.710938 -1.640625 -0.519531 -1.660156 -0.441406 -1.699219 C -0.351562 -1.738281 -0.28125 -1.800781 -0.238281 -1.878906 C -0.199219 -1.960938 -0.179688 -2.121094 -0.179688 -2.371094 L 0 -2.371094 L 0 -0.160156 L -0.179688 -0.160156 C -0.179688 -0.359375 -0.199219 -0.5 -0.238281 -0.578125 C -0.28125 -0.660156 -0.351562 -0.730469 -0.449219 -0.769531 C -0.550781 -0.808594 -0.730469 -0.828125 -1.011719 -0.828125 L -2.71875 -0.828125 C -3.210938 -0.828125 -3.53125 -0.808594 -3.671875 -0.789062 C -3.769531 -0.769531 -3.851562 -0.730469 -3.890625 -0.679688 C -3.929688 -0.628906 -3.960938 -0.558594 -3.960938 -0.480469 C -3.960938 -0.390625 -3.929688 -0.28125 -3.878906 -0.160156 L -4.058594 -0.078125 L -4.601562 -1.429688 L -4.601562 -1.640625 Z M -3.648438 -1.640625 "/>
</g>
<g id="glyph-3-14">
<path d="M -6.738281 -0.21875 L -6.941406 -0.21875 C -6.699219 -0.71875 -6.410156 -1.128906 -6.078125 -1.460938 C -5.601562 -1.921875 -5.050781 -2.28125 -4.410156 -2.539062 C -3.769531 -2.789062 -3.101562 -2.921875 -2.410156 -2.921875 C -1.390625 -2.921875 -0.46875 -2.671875 0.351562 -2.171875 C 1.171875 -1.671875 1.769531 -1.019531 2.128906 -0.21875 L 1.949219 -0.21875 C 1.71875 -0.621094 1.410156 -0.949219 1.03125 -1.210938 C 0.648438 -1.46875 0.160156 -1.660156 -0.421875 -1.789062 C -1 -1.910156 -1.621094 -1.980469 -2.261719 -1.980469 C -2.949219 -1.980469 -3.578125 -1.921875 -4.160156 -1.820312 C -4.601562 -1.730469 -4.960938 -1.628906 -5.230469 -1.511719 C -5.5 -1.390625 -5.761719 -1.21875 -6.019531 -1.019531 C -6.269531 -0.820312 -6.511719 -0.550781 -6.738281 -0.21875 Z M -6.738281 -0.21875 "/>
</g>
<g id="glyph-4-0">
<path d="M -0.890625 -3.207031 L 0 -2.882812 L 0 -0.148438 L -0.125 -0.148438 C -0.855469 -0.953125 -1.457031 -1.519531 -1.925781 -1.847656 C -2.386719 -2.171875 -2.8125 -2.339844 -3.199219 -2.339844 C -3.492188 -2.339844 -3.730469 -2.246094 -3.921875 -2.066406 C -4.109375 -1.882812 -4.207031 -1.671875 -4.207031 -1.429688 C -4.207031 -1.195312 -4.136719 -0.992188 -4.003906 -0.8125 C -3.871094 -0.628906 -3.675781 -0.496094 -3.421875 -0.414062 L -3.421875 -0.285156 C -3.84375 -0.34375 -4.164062 -0.484375 -4.390625 -0.722656 C -4.613281 -0.960938 -4.730469 -1.253906 -4.730469 -1.601562 C -4.730469 -1.980469 -4.605469 -2.296875 -4.367188 -2.546875 C -4.121094 -2.800781 -3.835938 -2.925781 -3.515625 -2.925781 C -3.277344 -2.925781 -3.046875 -2.871094 -2.808594 -2.765625 C -2.4375 -2.589844 -2.042969 -2.316406 -1.636719 -1.9375 C -1.015625 -1.371094 -0.644531 -1.015625 -0.519531 -0.875 L -0.519531 -2.085938 C -0.519531 -2.332031 -0.523438 -2.507812 -0.546875 -2.605469 C -0.558594 -2.703125 -0.59375 -2.792969 -0.652344 -2.878906 C -0.707031 -2.953125 -0.785156 -3.023438 -0.890625 -3.078125 Z M -0.890625 -3.207031 "/>
</g>
</g>
<clipPath id="clip-0">
<path clip-rule="nonzero" d="M 65 14 L 268 14 L 268 98 L 65 98 Z M 65 14 "/>
</clipPath>
<clipPath id="clip-1">
<path clip-rule="nonzero" d="M 65.695312 97.585938 L 65.695312 97.589844 L 67.386719 97.363281 L 69.082031 97.132812 L 72.464844 96.664062 L 74.160156 96.425781 L 75.851562 96.1875 L 77.542969 95.941406 L 79.238281 95.695312 L 80.929688 95.445312 L 82.621094 95.191406 L 84.316406 94.933594 L 86.007812 94.671875 L 87.699219 94.40625 L 89.394531 94.136719 L 91.085938 93.863281 L 92.777344 93.585938 L 94.472656 93.300781 L 96.164062 93.015625 L 97.855469 92.726562 L 99.550781 92.433594 L 101.242188 92.136719 L 102.933594 91.832031 L 104.628906 91.527344 L 108.011719 90.902344 L 109.707031 90.582031 L 111.398438 90.261719 L 113.089844 89.933594 L 114.785156 89.605469 L 118.167969 88.933594 L 119.863281 88.589844 L 123.246094 87.894531 L 124.941406 87.539062 L 126.632812 87.179688 L 128.324219 86.816406 L 130.019531 86.445312 L 131.710938 86.074219 L 133.402344 85.699219 L 135.097656 85.320312 L 138.480469 84.546875 L 140.175781 84.15625 L 143.558594 83.359375 L 145.253906 82.953125 L 148.636719 82.132812 L 150.332031 81.710938 L 152.023438 81.289062 L 153.714844 80.863281 L 155.410156 80.433594 L 157.101562 80 L 158.792969 79.558594 L 160.488281 79.117188 L 162.179688 78.671875 L 163.871094 78.21875 L 165.566406 77.765625 L 168.949219 76.84375 L 170.644531 76.375 L 172.335938 75.90625 L 174.027344 75.429688 L 175.722656 74.949219 L 177.414062 74.46875 L 179.105469 73.980469 L 180.800781 73.488281 L 182.492188 72.996094 L 184.183594 72.496094 L 185.878906 71.996094 L 187.570312 71.488281 L 189.261719 70.976562 L 190.957031 70.464844 L 192.648438 69.945312 L 194.339844 69.421875 L 196.035156 68.898438 L 197.726562 68.367188 L 199.417969 67.832031 L 201.113281 67.296875 L 204.496094 66.210938 L 206.191406 65.660156 L 207.882812 65.109375 L 209.574219 64.550781 L 211.269531 63.992188 L 214.652344 62.859375 L 216.347656 62.285156 L 218.039062 61.710938 L 219.730469 61.128906 L 221.425781 60.546875 L 224.808594 59.367188 L 226.503906 58.773438 L 229.886719 57.570312 L 231.582031 56.964844 L 233.273438 56.355469 L 234.964844 55.738281 L 236.660156 55.121094 L 238.351562 54.5 L 240.042969 53.875 L 241.738281 53.242188 L 243.429688 52.609375 L 245.121094 51.972656 L 246.816406 51.332031 L 248.507812 50.6875 L 250.199219 50.039062 L 251.894531 49.386719 L 253.585938 48.730469 L 255.28125 48.074219 L 256.972656 47.410156 L 258.664062 46.742188 L 260.359375 46.074219 L 262.050781 45.398438 L 263.742188 44.71875 L 265.4375 44.039062 L 267.128906 43.351562 L 267.128906 14.933594 L 265.4375 16.140625 L 263.742188 17.339844 L 262.050781 18.53125 L 260.359375 19.71875 L 258.664062 20.894531 L 256.972656 22.0625 L 255.28125 23.222656 L 253.585938 24.375 L 251.894531 25.523438 L 250.199219 26.660156 L 248.507812 27.792969 L 246.816406 28.917969 L 245.121094 30.035156 L 243.429688 31.144531 L 241.738281 32.246094 L 240.042969 33.34375 L 238.351562 34.425781 L 236.660156 35.503906 L 234.964844 36.574219 L 233.273438 37.636719 L 231.582031 38.691406 L 229.886719 39.738281 L 228.195312 40.777344 L 226.503906 41.808594 L 224.808594 42.832031 L 223.117188 43.851562 L 221.425781 44.859375 L 219.730469 45.855469 L 218.039062 46.839844 L 216.347656 47.816406 L 214.652344 48.78125 L 212.960938 49.734375 L 211.269531 50.679688 L 209.574219 51.613281 L 207.882812 52.539062 L 206.191406 53.457031 L 204.496094 54.367188 L 202.804688 55.269531 L 201.113281 56.160156 L 199.417969 57.042969 L 197.726562 57.914062 L 196.035156 58.777344 L 194.339844 59.632812 L 192.648438 60.476562 L 190.957031 61.3125 L 189.261719 62.132812 L 187.570312 62.945312 L 185.878906 63.75 L 184.183594 64.542969 L 182.492188 65.328125 L 180.800781 66.101562 L 179.105469 66.867188 L 177.414062 67.625 L 175.722656 68.371094 L 174.027344 69.109375 L 172.335938 69.835938 L 170.644531 70.554688 L 168.949219 71.261719 L 167.257812 71.960938 L 165.566406 72.648438 L 163.871094 73.328125 L 162.179688 74 L 160.488281 74.660156 L 158.792969 75.308594 L 157.101562 75.945312 L 155.410156 76.570312 L 153.714844 77.1875 L 152.023438 77.796875 L 150.332031 78.394531 L 148.636719 78.980469 L 146.945312 79.558594 L 145.253906 80.125 L 143.558594 80.679688 L 141.867188 81.226562 L 140.175781 81.761719 L 138.480469 82.289062 L 136.789062 82.808594 L 135.097656 83.316406 L 133.402344 83.8125 L 131.710938 84.300781 L 130.019531 84.78125 L 128.324219 85.25 L 126.632812 85.714844 L 124.941406 86.167969 L 123.246094 86.609375 L 121.554688 87.042969 L 119.863281 87.472656 L 118.167969 87.890625 L 116.476562 88.300781 L 114.785156 88.699219 L 113.089844 89.09375 L 111.398438 89.480469 L 109.707031 89.859375 L 108.011719 90.230469 L 106.320312 90.59375 L 104.628906 90.953125 L 102.933594 91.304688 L 101.242188 91.648438 L 99.550781 91.988281 L 97.855469 92.320312 L 96.164062 92.648438 L 94.472656 92.96875 L 92.777344 93.285156 L 91.085938 93.59375 L 89.394531 93.894531 L 87.699219 94.191406 L 86.007812 94.484375 L 84.316406 94.769531 L 82.621094 95.050781 L 79.238281 95.597656 L 77.542969 95.863281 L 75.851562 96.121094 L 74.160156 96.375 L 72.464844 96.625 L 70.773438 96.871094 L 69.082031 97.113281 L 67.386719 97.351562 Z M 65.695312 97.585938 "/>
</clipPath>
<clipPath id="clip-2">
<path clip-rule="nonzero" d="M 0 0 L 72 0 L 72 72 L 0 72 Z M 0 0 "/>
</clipPath>
<clipPath id="clip-3">
<rect x="0" y="0" width="72" height="72"/>
</clipPath>
<g id="source-5" clip-path="url(#clip-3)">
<g clip-path="url(#clip-2)">
<path fill-rule="nonzero" fill="rgb(0%, 0%, 0%)" fill-opacity="1" stroke-width="1" stroke-linecap="butt" stroke-linejoin="miter" stroke="rgb(66.665649%, 66.665649%, 66.665649%)" stroke-opacity="1" stroke-miterlimit="10" d="M -36 36 L 36 -36 M -34.5 37.5 L 37.5 -34.5 M -33 39 L 39 -33 M -31.5 40.5 L 40.5 -31.5 M -30 42 L 42 -30 M -28.5 43.5 L 43.5 -28.5 M -27 45 L 45 -27 M -25.5 46.5 L 46.5 -25.5 M -24 48 L 48 -24 M -22.5 49.5 L 49.5 -22.5 M -21 51 L 51 -21 M -19.5 52.5 L 52.5 -19.5 M -18 54 L 54 -18 M -16.5 55.5 L 55.5 -16.5 M -15 57 L 57 -15 M -13.5 58.5 L 58.5 -13.5 M -12 60 L 60 -12 M -10.5 61.5 L 61.5 -10.5 M -9 63 L 63 -9 M -7.5 64.5 L 64.5 -7.5 M -6 66 L 66 -6 M -4.5 67.5 L 67.5 -4.5 M -3 69 L 69 -3 M -1.5 70.5 L 70.5 -1.5 M 0 72 L 72 0 M 1.5 73.5 L 73.5 1.5 M 3 75 L 75 3 M 4.5 76.5 L 76.5 4.5 M 6 78 L 78 6 M 7.5 79.5 L 79.5 7.5 M 9 81 L 81 9 M 10.5 82.5 L 82.5 10.5 M 12 84 L 84 12 M 13.5 85.5 L 85.5 13.5 M 15 87 L 87 15 M 16.5 88.5 L 88.5 16.5 M 18 90 L 90 18 M 19.5 91.5 L 91.5 19.5 M 21 93 L 93 21 M 22.5 94.5 L 94.5 22.5 M 24 96 L 96 24 M 25.5 97.5 L 97.5 25.5 M 27 99 L 99 27 M 28.5 100.5 L 100.5 28.5 M 30 102 L 102 30 M 31.5 103.5 L 103.5 31.5 M 33 105 L 105 33 M 34.5 106.5 L 106.5 34.5 M 36 108 L 108 36 "/>
</g>
</g>
<pattern id="pattern-0" patternUnits="userSpaceOnUse" x="0" y="0" width="72" height="72" viewBox="0 0 72 72" patternTransform="matrix(1, 0, 0, -1, 0, 144)">
<use xlink:href="#source-5"/>
</pattern>
</defs>
<rect x="-28.8" y="-14.4" width="345.6" height="172.8" fill="rgb(100%, 100%, 100%)" fill-opacity="1"/>
<path fill-rule="nonzero" fill="rgb(100%, 100%, 100%)" fill-opacity="1" d="M 55.625 101.722656 L 277.199219 101.722656 L 277.199219 10.800781 L 55.625 10.800781 Z M 55.625 101.722656 "/>
<g clip-path="url(#clip-0)">
<g clip-path="url(#clip-1)">
<path fill-rule="nonzero" fill="url(#pattern-0)" d="M 65.695312 97.589844 L 267.128906 97.589844 L 267.128906 14.933594 L 65.695312 14.933594 Z M 65.695312 97.589844 "/>
</g>
</g>
<path fill="none" stroke-width="0.8" stroke-linecap="butt" stroke-linejoin="round" stroke="rgb(0%, 0%, 0%)" stroke-opacity="1" stroke-miterlimit="10" d="M 62.308594 42.277344 L 62.308594 38.777344 " transform="matrix(1, 0, 0, -1, 0, 144)"/>
<g fill="rgb(0%, 0%, 0%)" fill-opacity="1">
<use xlink:href="#glyph-0-0" x="50.645483" y="115.659688"/>
<use xlink:href="#glyph-0-1" x="55.645483" y="115.659688"/>
<use xlink:href="#glyph-0-1" x="60.645483" y="115.659688"/>
<use xlink:href="#glyph-0-2" x="65.645483" y="115.659688"/>
</g>
<path fill="none" stroke-width="0.8" stroke-linecap="butt" stroke-linejoin="round" stroke="rgb(0%, 0%, 0%)" stroke-opacity="1" stroke-miterlimit="10" d="M 113.089844 42.277344 L 113.089844 38.777344 " transform="matrix(1, 0, 0, -1, 0, 144)"/>
<g fill="rgb(0%, 0%, 0%)" fill-opacity="1">
<use xlink:href="#glyph-0-0" x="101.427001" y="115.659688"/>
<use xlink:href="#glyph-0-3" x="106.427001" y="115.659688"/>
<use xlink:href="#glyph-0-1" x="111.427001" y="115.659688"/>
<use xlink:href="#glyph-0-2" x="116.427001" y="115.659688"/>
</g>
<path fill="none" stroke-width="0.8" stroke-linecap="butt" stroke-linejoin="round" stroke="rgb(0%, 0%, 0%)" stroke-opacity="1" stroke-miterlimit="10" d="M 163.871094 42.277344 L 163.871094 38.777344 " transform="matrix(1, 0, 0, -1, 0, 144)"/>
<g fill="rgb(0%, 0%, 0%)" fill-opacity="1">
<use xlink:href="#glyph-0-4" x="152.208518" y="115.659688"/>
<use xlink:href="#glyph-0-1" x="157.208518" y="115.659688"/>
<use xlink:href="#glyph-0-1" x="162.208518" y="115.659688"/>
<use xlink:href="#glyph-0-2" x="167.208518" y="115.659688"/>
</g>
<path fill="none" stroke-width="0.8" stroke-linecap="butt" stroke-linejoin="round" stroke="rgb(0%, 0%, 0%)" stroke-opacity="1" stroke-miterlimit="10" d="M 214.652344 42.277344 L 214.652344 38.777344 " transform="matrix(1, 0, 0, -1, 0, 144)"/>
<g fill="rgb(0%, 0%, 0%)" fill-opacity="1">
<use xlink:href="#glyph-0-4" x="202.990035" y="115.659688"/>
<use xlink:href="#glyph-0-3" x="207.990035" y="115.659688"/>
<use xlink:href="#glyph-0-1" x="212.990035" y="115.659688"/>
<use xlink:href="#glyph-0-2" x="217.990035" y="115.659688"/>
</g>
<path fill="none" stroke-width="0.8" stroke-linecap="butt" stroke-linejoin="round" stroke="rgb(0%, 0%, 0%)" stroke-opacity="1" stroke-miterlimit="10" d="M 265.4375 42.277344 L 265.4375 38.777344 " transform="matrix(1, 0, 0, -1, 0, 144)"/>
<g fill="rgb(0%, 0%, 0%)" fill-opacity="1">
<use xlink:href="#glyph-0-5" x="253.771553" y="115.659688"/>
<use xlink:href="#glyph-0-1" x="258.771553" y="115.659688"/>
<use xlink:href="#glyph-0-1" x="263.771553" y="115.659688"/>
<use xlink:href="#glyph-0-2" x="268.771553" y="115.659688"/>
</g>
<g fill="rgb(0%, 0%, 0%)" fill-opacity="1">
<use xlink:href="#glyph-1-0" x="145.911656" y="128.737812"/>
</g>
<g fill="rgb(0%, 0%, 0%)" fill-opacity="1">
<use xlink:href="#glyph-2-0" x="153.133336" y="131.215625"/>
</g>
<g fill="rgb(0%, 0%, 0%)" fill-opacity="1">
<use xlink:href="#glyph-2-1" x="158.57816" y="131.215625"/>
</g>
<g fill="rgb(0%, 0%, 0%)" fill-opacity="1">
<use xlink:href="#glyph-2-2" x="161.685094" y="131.215625"/>
</g>
<g fill="rgb(0%, 0%, 0%)" fill-opacity="1">
<use xlink:href="#glyph-0-6" x="165.598063" y="128.737812"/>
</g>
<g fill="rgb(0%, 0%, 0%)" fill-opacity="1">
<use xlink:href="#glyph-1-0" x="168.376383" y="128.737812"/>
</g>
<g fill="rgb(0%, 0%, 0%)" fill-opacity="1">
<use xlink:href="#glyph-2-0" x="175.598063" y="131.215625"/>
</g>
<g fill="rgb(0%, 0%, 0%)" fill-opacity="1">
<use xlink:href="#glyph-2-3" x="181.042887" y="131.215625"/>
</g>
<g fill="rgb(0%, 0%, 0%)" fill-opacity="1">
<use xlink:href="#glyph-2-4" x="182.987711" y="131.215625"/>
</g>
<path fill="none" stroke-width="0.8" stroke-linecap="butt" stroke-linejoin="round" stroke="rgb(0%, 0%, 0%)" stroke-opacity="1" stroke-miterlimit="10" d="M 55.625 45.933594 L 52.125 45.933594 " transform="matrix(1, 0, 0, -1, 0, 144)"/>
<g fill="rgb(0%, 0%, 0%)" fill-opacity="1">
<use xlink:href="#glyph-0-1" x="43.623313" y="101.535822"/>
</g>
<path fill="none" stroke-width="0.8" stroke-linecap="butt" stroke-linejoin="round" stroke="rgb(0%, 0%, 0%)" stroke-opacity="1" stroke-miterlimit="10" d="M 55.625 75.621094 L 52.125 75.621094 " transform="matrix(1, 0, 0, -1, 0, 144)"/>
<g fill="rgb(0%, 0%, 0%)" fill-opacity="1">
<use xlink:href="#glyph-0-3" x="33.623313" y="71.846334"/>
<use xlink:href="#glyph-0-1" x="38.623313" y="71.846334"/>
<use xlink:href="#glyph-0-1" x="43.623313" y="71.846334"/>
</g>
<path fill="none" stroke-width="0.8" stroke-linecap="butt" stroke-linejoin="round" stroke="rgb(0%, 0%, 0%)" stroke-opacity="1" stroke-miterlimit="10" d="M 55.625 105.3125 L 52.125 105.3125 " transform="matrix(1, 0, 0, -1, 0, 144)"/>
<g fill="rgb(0%, 0%, 0%)" fill-opacity="1">
<use xlink:href="#glyph-0-0" x="28.623312" y="42.156846"/>
<use xlink:href="#glyph-0-1" x="33.623312" y="42.156846"/>
<use xlink:href="#glyph-0-1" x="38.623312" y="42.156846"/>
<use xlink:href="#glyph-0-1" x="43.623312" y="42.156846"/>
</g>
<g fill="rgb(0%, 0%, 0%)" fill-opacity="1">
<use xlink:href="#glyph-3-0" x="21.140812" y="107.261094"/>
</g>
<g fill="rgb(0%, 0%, 0%)" fill-opacity="1">
<use xlink:href="#glyph-3-1" x="21.140812" y="98.369492"/>
</g>
<g fill="rgb(0%, 0%, 0%)" fill-opacity="1">
<use xlink:href="#glyph-3-2" x="21.140812" y="93.931016"/>
</g>
<g fill="rgb(0%, 0%, 0%)" fill-opacity="1">
<use xlink:href="#glyph-3-3" x="21.140812" y="89.492539"/>
</g>
<g fill="rgb(0%, 0%, 0%)" fill-opacity="1">
<use xlink:href="#glyph-3-4" x="21.140812" y="84.492539"/>
</g>
<g fill="rgb(0%, 0%, 0%)" fill-opacity="1">
<use xlink:href="#glyph-3-5" x="21.140812" y="81.992539"/>
</g>
<g fill="rgb(0%, 0%, 0%)" fill-opacity="1">
<use xlink:href="#glyph-3-1" x="21.140812" y="76.431016"/>
</g>
<g fill="rgb(0%, 0%, 0%)" fill-opacity="1">
<use xlink:href="#glyph-3-2" x="21.140812" y="71.992539"/>
</g>
<g fill="rgb(0%, 0%, 0%)" fill-opacity="1">
<use xlink:href="#glyph-3-6" x="21.140812" y="67.554062"/>
</g>
<g fill="rgb(0%, 0%, 0%)" fill-opacity="1">
<use xlink:href="#glyph-3-7" x="21.140812" y="63.662461"/>
</g>
<g fill="rgb(0%, 0%, 0%)" fill-opacity="1">
<use xlink:href="#glyph-3-8" x="21.140812" y="60.884141"/>
</g>
<g fill="rgb(0%, 0%, 0%)" fill-opacity="1">
<use xlink:href="#glyph-3-9" x="21.140812" y="55.884141"/>
</g>
<g fill="rgb(0%, 0%, 0%)" fill-opacity="1">
<use xlink:href="#glyph-3-1" x="21.140812" y="53.10582"/>
</g>
<g fill="rgb(0%, 0%, 0%)" fill-opacity="1">
<use xlink:href="#glyph-3-4" x="21.140812" y="48.667344"/>
</g>
<g fill="rgb(0%, 0%, 0%)" fill-opacity="1">
<use xlink:href="#glyph-3-10" x="21.140812" y="46.167344"/>
</g>
<g fill="rgb(0%, 0%, 0%)" fill-opacity="1">
<use xlink:href="#glyph-3-11" x="21.140812" y="38.945664"/>
</g>
<g fill="rgb(0%, 0%, 0%)" fill-opacity="1">
<use xlink:href="#glyph-3-1" x="21.140812" y="35.615586"/>
</g>
<g fill="rgb(0%, 0%, 0%)" fill-opacity="1">
<use xlink:href="#glyph-3-2" x="21.140812" y="31.177109"/>
</g>
<g fill="rgb(0%, 0%, 0%)" fill-opacity="1">
<use xlink:href="#glyph-3-4" x="21.140812" y="26.738633"/>
</g>
<g fill="rgb(0%, 0%, 0%)" fill-opacity="1">
<use xlink:href="#glyph-3-12" x="21.140812" y="24.238633"/>
</g>
<g fill="rgb(0%, 0%, 0%)" fill-opacity="1">
<use xlink:href="#glyph-3-13" x="21.140812" y="20.908555"/>
</g>
<g fill="rgb(0%, 0%, 0%)" fill-opacity="1">
<use xlink:href="#glyph-4-0" x="15.35925" y="12.985695"/>
</g>
<g fill="rgb(0%, 0%, 0%)" fill-opacity="1">
<use xlink:href="#glyph-3-14" x="21.140812" y="9.072727"/>
</g>
<path fill="none" stroke-width="1" stroke-linecap="butt" stroke-linejoin="round" stroke="rgb(100%, 0%, 0%)" stroke-opacity="1" stroke-dasharray="3.7 1.6" stroke-miterlimit="10" d="M 65.695312 46.410156 L 67.386719 46.636719 L 69.082031 46.867188 L 72.464844 47.335938 L 74.160156 47.574219 L 75.851562 47.8125 L 77.542969 48.058594 L 79.238281 48.304688 L 80.929688 48.554688 L 82.621094 48.808594 L 84.316406 49.066406 L 86.007812 49.328125 L 87.699219 49.59375 L 89.394531 49.863281 L 91.085938 50.136719 L 92.777344 50.414062 L 94.472656 50.699219 L 96.164062 50.984375 L 97.855469 51.273438 L 99.550781 51.566406 L 101.242188 51.863281 L 102.933594 52.167969 L 104.628906 52.472656 L 108.011719 53.097656 L 109.707031 53.417969 L 111.398438 53.738281 L 113.089844 54.066406 L 114.785156 54.394531 L 118.167969 55.066406 L 119.863281 55.410156 L 123.246094 56.105469 L 124.941406 56.460938 L 126.632812 56.820312 L 128.324219 57.183594 L 130.019531 57.554688 L 131.710938 57.925781 L 133.402344 58.300781 L 135.097656 58.679688 L 138.480469 59.453125 L 140.175781 59.84375 L 143.558594 60.640625 L 145.253906 61.046875 L 148.636719 61.867188 L 150.332031 62.289062 L 152.023438 62.710938 L 153.714844 63.136719 L 155.410156 63.566406 L 157.101562 64 L 158.792969 64.441406 L 160.488281 64.882812 L 162.179688 65.328125 L 163.871094 65.78125 L 165.566406 66.234375 L 168.949219 67.15625 L 170.644531 67.625 L 172.335938 68.09375 L 174.027344 68.570312 L 175.722656 69.050781 L 177.414062 69.53125 L 179.105469 70.019531 L 180.800781 70.511719 L 182.492188 71.003906 L 184.183594 71.503906 L 185.878906 72.003906 L 187.570312 72.511719 L 189.261719 73.023438 L 190.957031 73.535156 L 192.648438 74.054688 L 194.339844 74.578125 L 196.035156 75.101562 L 197.726562 75.632812 L 199.417969 76.167969 L 201.113281 76.703125 L 204.496094 77.789062 L 206.191406 78.339844 L 207.882812 78.890625 L 209.574219 79.449219 L 211.269531 80.007812 L 214.652344 81.140625 L 216.347656 81.714844 L 218.039062 82.289062 L 219.730469 82.871094 L 221.425781 83.453125 L 224.808594 84.632812 L 226.503906 85.226562 L 229.886719 86.429688 L 231.582031 87.035156 L 233.273438 87.644531 L 234.964844 88.261719 L 236.660156 88.878906 L 238.351562 89.5 L 240.042969 90.125 L 241.738281 90.757812 L 243.429688 91.390625 L 245.121094 92.027344 L 246.816406 92.667969 L 248.507812 93.3125 L 250.199219 93.960938 L 251.894531 94.613281 L 253.585938 95.269531 L 255.28125 95.925781 L 256.972656 96.589844 L 258.664062 97.257812 L 260.359375 97.925781 L 262.050781 98.601562 L 263.742188 99.28125 L 265.4375 99.960938 L 267.128906 100.648438 " transform="matrix(1, 0, 0, -1, 0, 144)"/>
<path fill="none" stroke-width="1.5" stroke-linecap="square" stroke-linejoin="round" stroke="rgb(0%, 0%, 100%)" stroke-opacity="1" stroke-miterlimit="10" d="M 65.695312 46.414062 L 67.386719 46.648438 L 69.082031 46.886719 L 70.773438 47.128906 L 72.464844 47.375 L 74.160156 47.625 L 75.851562 47.878906 L 77.542969 48.136719 L 79.238281 48.402344 L 82.621094 48.949219 L 84.316406 49.230469 L 86.007812 49.515625 L 87.699219 49.808594 L 89.394531 50.105469 L 91.085938 50.40625 L 92.777344 50.714844 L 94.472656 51.03125 L 96.164062 51.351562 L 97.855469 51.679688 L 99.550781 52.011719 L 101.242188 52.351562 L 102.933594 52.695312 L 104.628906 53.046875 L 106.320312 53.40625 L 108.011719 53.769531 L 109.707031 54.140625 L 111.398438 54.519531 L 113.089844 54.90625 L 114.785156 55.300781 L 116.476562 55.699219 L 118.167969 56.109375 L 119.863281 56.527344 L 121.554688 56.957031 L 123.246094 57.390625 L 124.941406 57.832031 L 126.632812 58.285156 L 128.324219 58.75 L 130.019531 59.21875 L 131.710938 59.699219 L 133.402344 60.1875 L 135.097656 60.683594 L 136.789062 61.191406 L 138.480469 61.710938 L 140.175781 62.238281 L 141.867188 62.773438 L 143.558594 63.320312 L 145.253906 63.875 L 146.945312 64.441406 L 148.636719 65.019531 L 150.332031 65.605469 L 152.023438 66.203125 L 153.714844 66.8125 L 155.410156 67.429688 L 157.101562 68.054688 L 158.792969 68.691406 L 160.488281 69.339844 L 162.179688 70 L 163.871094 70.671875 L 165.566406 71.351562 L 167.257812 72.039062 L 168.949219 72.738281 L 170.644531 73.445312 L 172.335938 74.164062 L 174.027344 74.890625 L 175.722656 75.628906 L 177.414062 76.375 L 179.105469 77.132812 L 180.800781 77.898438 L 182.492188 78.671875 L 184.183594 79.457031 L 185.878906 80.25 L 187.570312 81.054688 L 189.261719 81.867188 L 190.957031 82.6875 L 192.648438 83.523438 L 194.339844 84.367188 L 196.035156 85.222656 L 197.726562 86.085938 L 199.417969 86.957031 L 201.113281 87.839844 L 202.804688 88.730469 L 204.496094 89.632812 L 206.191406 90.542969 L 207.882812 91.460938 L 209.574219 92.386719 L 211.269531 93.320312 L 212.960938 94.265625 L 214.652344 95.21875 L 216.347656 96.183594 L 218.039062 97.160156 L 219.730469 98.144531 L 221.425781 99.140625 L 223.117188 100.148438 L 224.808594 101.167969 L 226.503906 102.191406 L 228.195312 103.222656 L 229.886719 104.261719 L 231.582031 105.308594 L 233.273438 106.363281 L 234.964844 107.425781 L 236.660156 108.496094 L 238.351562 109.574219 L 240.042969 110.65625 L 241.738281 111.753906 L 243.429688 112.855469 L 245.121094 113.964844 L 246.816406 115.082031 L 248.507812 116.207031 L 250.199219 117.339844 L 251.894531 118.476562 L 253.585938 119.625 L 255.28125 120.777344 L 256.972656 121.9375 L 258.664062 123.105469 L 260.359375 124.28125 L 262.050781 125.46875 L 263.742188 126.660156 L 265.4375 127.859375 L 267.128906 129.066406 " transform="matrix(1, 0, 0, -1, 0, 144)"/>
<path fill="none" stroke-width="0.8" stroke-linecap="square" stroke-linejoin="miter" stroke="rgb(0%, 0%, 0%)" stroke-opacity="1" stroke-miterlimit="10" d="M 55.625 42.277344 L 55.625 133.199219 " transform="matrix(1, 0, 0, -1, 0, 144)"/>
<path fill="none" stroke-width="0.8" stroke-linecap="square" stroke-linejoin="miter" stroke="rgb(0%, 0%, 0%)" stroke-opacity="1" stroke-miterlimit="10" d="M 55.625 42.277344 L 277.199219 42.277344 " transform="matrix(1, 0, 0, -1, 0, 144)"/>
<path fill="none" stroke-width="1" stroke-linecap="butt" stroke-linejoin="round" stroke="rgb(100%, 0%, 0%)" stroke-opacity="1" stroke-dasharray="3.7 1.6" stroke-miterlimit="10" d="M 64.625 120.699219 L 84.625 120.699219 " transform="matrix(1, 0, 0, -1, 0, 144)"/>
<g fill="rgb(0%, 0%, 0%)" fill-opacity="1">
<use xlink:href="#glyph-0-7" x="92.623312" y="26.8"/>
<use xlink:href="#glyph-0-8" x="98.183312" y="26.8"/>
<use xlink:href="#glyph-0-9" x="100.963312" y="26.8"/>
<use xlink:href="#glyph-0-10" x="105.963312" y="26.8"/>
<use xlink:href="#glyph-0-11" x="110.963312" y="26.8"/>
<use xlink:href="#glyph-0-12" x="113.743312" y="26.8"/>
<use xlink:href="#glyph-0-13" x="118.183312" y="26.8"/>
<use xlink:href="#glyph-0-14" x="121.513312" y="26.8"/>
<use xlink:href="#glyph-0-15" x="124.843312" y="26.8"/>
<use xlink:href="#glyph-0-16" x="129.843312" y="26.8"/>
<use xlink:href="#glyph-0-12" x="134.843312" y="26.8"/>
<use xlink:href="#glyph-0-17" x="139.283312" y="26.8"/>
</g>
<path fill="none" stroke-width="1.5" stroke-linecap="square" stroke-linejoin="round" stroke="rgb(0%, 0%, 100%)" stroke-opacity="1" stroke-miterlimit="10" d="M 64.625 106.542969 L 84.625 106.542969 " transform="matrix(1, 0, 0, -1, 0, 144)"/>
<g fill="rgb(0%, 0%, 0%)" fill-opacity="1">
<use xlink:href="#glyph-0-18" x="92.623312" y="40.95625"/>
<use xlink:href="#glyph-0-19" x="101.513312" y="40.95625"/>
<use xlink:href="#glyph-0-11" x="106.513312" y="40.95625"/>
<use xlink:href="#glyph-0-20" x="109.293312" y="40.95625"/>
<use xlink:href="#glyph-0-8" x="112.073312" y="40.95625"/>
<use xlink:href="#glyph-0-13" x="114.853312" y="40.95625"/>
<use xlink:href="#glyph-0-14" x="118.183312" y="40.95625"/>
<use xlink:href="#glyph-0-15" x="121.513312" y="40.95625"/>
<use xlink:href="#glyph-0-16" x="126.513312" y="40.95625"/>
<use xlink:href="#glyph-0-12" x="131.513312" y="40.95625"/>
<use xlink:href="#glyph-0-17" x="135.953312" y="40.95625"/>
</g>
</svg>
