<svg
  xmlns="http://www.w3.org/2000/svg"
  viewBox="-10 -10 420 120"
  aria-label="FOCUS"
  style="width: auto; height: 0.85em"
>
  <defs>
    <style>
      @media (prefers-color-scheme: dark) {
        :root {
          color: white;
        }
      }
      .focal line {
        stroke: currentColor;
        stroke-width: 4;
        stroke-dasharray: 0 6;
        stroke-linecap: round;
        opacity: 0.6;
      }
      .focal circle {
        fill: currentColor;
      }
    </style>
  </defs>
  <!-- Focal lines -->
  <g class="focal" transform="translate(280, 50)">
    <line x2="-80" transform="rotate(-36)" />
    <line x2="-85" transform="rotate(-18)" />
    <line x2="-88" transform="rotate(0)" />
    <line x2="-85" transform="rotate(+18)" />
    <line x2="-80" transform="rotate(+36)" />
    <circle opacity="0.1" r="19" />
    <circle opacity="0.4" r="14" />
    <circle opacity="0.7" r="9" />
    <circle opacity="1.0" r="4" />
  </g>
  <!-- FOCUS -->
  <path
    d="M 60,10 H 0 V 100 M 55,50 H 0"
    stroke="currentColor"
    stroke-width="20"
    fill="none"
    transform=""
  />
  <path
    d="M 0 38 A 30 30 0 0 1 60 38 V 62 A 30 30 0 0 1 0 62 Z"
    stroke="currentColor"
    stroke-width="20"
    fill="none"
    transform="translate(80)"
  />
  <path
    d="M 50 0 A 50 50 0 0 0 50 100 H 60 A 55 55 0 0 1 60 0 Z"
    fill="currentColor"
    transform="translate(165)"
  />
  <path
    d="M 0 0 V 62 A 30 30 0 0 0 60 62 V 0"
    fill="none"
    stroke="currentColor"
    stroke-width="20"
    transform="translate(250)"
  />
  <path
    d="M 60 30 C 55 -1 0 -1 0 30 C 0 60 60 40 60 70 C 60 101 0 101 0 70"
    fill="none"
    stroke="currentColor"
    stroke-width="20"
    transform="translate(340)"
  />
</svg>
